<?xml version="1.0" encoding="UTF-8"?><svg id="Layer_1" xmlns="http://www.w3.org/2000/svg" viewBox="0 0 165 165"><defs><style>.cls-1{fill:#333;}</style></defs><path class="cls-1" d="m95.84,64.89c-.84,0-1.58-.61-1.72-1.46-.71-4.25-4.35-7.34-8.66-7.34h-5.92c-4.31,0-7.95,3.09-8.66,7.34-.16.95-1.05,1.59-2.01,1.44-.95-.16-1.6-1.06-1.44-2.01.99-5.95,6.08-10.26,12.11-10.26h5.92c6.03,0,11.12,4.32,12.11,10.26.16.95-.49,1.85-1.44,2.01-.1.02-.19.02-.29.02Z"/><path class="cls-1" d="m82.5,56.09c-4.35,0-7.9-3.54-7.9-7.9s3.54-7.89,7.9-7.89,7.89,3.54,7.89,7.89-3.54,7.9-7.89,7.9Zm0-12.29c-2.42,0-4.4,1.97-4.4,4.39s1.97,4.4,4.4,4.4,4.39-1.97,4.39-4.4-1.97-4.39-4.39-4.39Z"/><path class="cls-1" d="m82.5,71.01c-11.08,0-20.09-9.01-20.09-20.09s9.01-20.09,20.09-20.09,20.09,9.01,20.09,20.09-9.01,20.09-20.09,20.09Zm0-36.69c-9.15,0-16.59,7.44-16.59,16.59s7.44,16.59,16.59,16.59,16.59-7.44,16.59-16.59-7.44-16.59-16.59-16.59Z"/><path class="cls-1" d="m59.92,124.61c-.84,0-1.58-.61-1.72-1.46-.71-4.25-4.35-7.34-8.66-7.34h-5.92c-4.31,0-7.95,3.09-8.66,7.34-.16.95-1.06,1.59-2.01,1.44-.95-.16-1.6-1.06-1.44-2.01.99-5.95,6.08-10.26,12.11-10.26h5.92c6.03,0,11.12,4.32,12.11,10.26.16.95-.49,1.85-1.44,2.01-.1.02-.19.02-.29.02Z"/><path class="cls-1" d="m46.58,115.81c-4.35,0-7.9-3.54-7.9-7.89s3.54-7.9,7.9-7.9,7.89,3.54,7.89,7.9-3.54,7.89-7.89,7.89Zm0-12.29c-2.42,0-4.4,1.97-4.4,4.4s1.97,4.39,4.4,4.39,4.39-1.97,4.39-4.39-1.97-4.4-4.39-4.4Z"/><path class="cls-1" d="m46.58,130.73c-11.08,0-20.09-9.01-20.09-20.09s9.01-20.09,20.09-20.09,20.09,9.01,20.09,20.09-9.01,20.09-20.09,20.09Zm0-36.69c-9.15,0-16.59,7.44-16.59,16.59s7.44,16.59,16.59,16.59,16.59-7.44,16.59-16.59-7.44-16.59-16.59-16.59Z"/><path class="cls-1" d="m131.75,124.61c-.84,0-1.58-.61-1.72-1.46-.71-4.25-4.35-7.34-8.66-7.34h-5.92c-4.31,0-7.95,3.09-8.66,7.34-.16.95-1.04,1.6-2.01,1.44-.95-.16-1.6-1.06-1.44-2.01.99-5.95,6.08-10.26,12.11-10.26h5.92c6.03,0,11.12,4.32,12.11,10.26.16.95-.49,1.86-1.44,2.01-.1.02-.19.02-.29.02Z"/><path class="cls-1" d="m118.42,115.81c-4.35,0-7.9-3.54-7.9-7.89s3.54-7.9,7.9-7.9,7.89,3.54,7.89,7.9-3.54,7.89-7.89,7.89Zm0-12.29c-2.42,0-4.4,1.97-4.4,4.4s1.97,4.39,4.4,4.39,4.39-1.97,4.39-4.39-1.97-4.4-4.39-4.4Z"/><path class="cls-1" d="m118.42,130.73c-11.08,0-20.09-9.01-20.09-20.09s9.01-20.09,20.09-20.09,20.09,9.01,20.09,20.09-9.01,20.09-20.09,20.09Zm0-36.69c-9.15,0-16.59,7.44-16.59,16.59s7.44,16.59,16.59,16.59,16.59-7.44,16.59-16.59-7.44-16.59-16.59-16.59Z"/><path class="cls-1" d="m82.5,134.18c-9.09,0-17.82-2.76-25.23-7.98-.79-.56-.98-1.65-.42-2.44.56-.79,1.65-.98,2.44-.42,6.82,4.8,14.85,7.34,23.22,7.34,5.01,0,9.9-.91,14.54-2.7.9-.35,1.92.1,2.26,1,.35.9-.1,1.92-1,2.26-5.04,1.94-10.35,2.93-15.8,2.93Z"/><path class="cls-1" d="m124.52,94.9s-.08,0-.12,0c-.96-.06-1.69-.9-1.63-1.86.06-.89.09-1.81.09-2.72,0-12.64-5.75-24.31-15.78-32.02-.77-.59-.91-1.69-.32-2.45.59-.77,1.69-.91,2.45-.32,10.9,8.38,17.15,21.06,17.15,34.79,0,.99-.03,1.98-.1,2.95-.06.92-.83,1.63-1.74,1.63Z"/><path class="cls-1" d="m41.11,84.25c-.11,0-.22,0-.32-.03-.95-.18-1.58-1.09-1.4-2.04,2.54-13.55,11.48-25.25,23.91-31.32.86-.42,1.92-.06,2.34.81.42.87.06,1.92-.81,2.34-11.44,5.58-19.67,16.35-22,28.81-.16.84-.89,1.43-1.72,1.43Z"/></svg>