<?xml version="1.0" encoding="UTF-8"?><svg id="Layer_1" xmlns="http://www.w3.org/2000/svg" viewBox="0 0 165 165"><defs><style>.cls-1{fill:#333;}</style></defs><path class="cls-1" d="m82.5,133.94c-.26,0-.53-.06-.77-.18l-17.73-8.74c-13.47-6.64-21.83-20.09-21.83-35.1v-39.9c0-.84.6-1.56,1.42-1.72,18.06-3.47,30.03-8.78,37.66-16.71.33-.34.79-.54,1.26-.54h0c.48,0,.93.19,1.26.54,7.63,7.94,19.59,13.25,37.66,16.71.82.16,1.42.88,1.42,1.72v39.9c0,15.02-8.37,28.47-21.84,35.1l-17.73,8.74c-.24.12-.51.18-.77.18ZM45.66,51.46v38.46c0,13.67,7.62,25.92,19.88,31.96l16.96,8.36,16.96-8.36c12.26-6.04,19.88-18.29,19.88-31.96v-38.46c-17.1-3.43-28.89-8.61-36.84-16.19-7.95,7.58-19.75,12.76-36.84,16.19Z"/><path class="cls-1" d="m80.12,100.42h0c-.46,0-.91-.18-1.24-.51l-16.97-16.97c-.33-.33-.51-.77-.51-1.24s.18-.91.51-1.24l6.08-6.08c.33-.33.77-.51,1.24-.51h0c.46,0,.91.18,1.24.51l9.65,9.65,18.94-18.94c.66-.66,1.82-.66,2.47,0l6.08,6.08c.33.33.51.77.51,1.24s-.18.91-.51,1.24l-26.26,26.26c-.33.33-.77.51-1.24.51Zm-14.49-18.72l14.49,14.49,23.78-23.78-3.61-3.61-18.94,18.94c-.33.33-.77.51-1.24.51h0c-.46,0-.91-.18-1.24-.51l-9.65-9.65-3.61,3.61Z"/></svg>