<?xml version="1.0" encoding="UTF-8"?><svg id="Layer_1" xmlns="http://www.w3.org/2000/svg" viewBox="0 0 165 165"><defs><style>.cls-1{fill:#333;}.cls-2{fill:none;stroke:#333;stroke-linecap:round;stroke-linejoin:round;stroke-width:3.5px;}</style></defs><line class="cls-2" x1="83.53" y1="36.24" x2="83.53" y2="42.56"/><line class="cls-2" x1="83.53" y1="70.12" x2="83.53" y2="76.44"/><path class="cls-2" d="m83.53,26.91c16.25,0,29.43,13.18,29.43,29.43s-13.18,29.43-29.43,29.43-29.43-13.18-29.43-29.43,13.18-29.43,29.43-29.43h0Z"/><path class="cls-2" d="m92.69,45.86c-2.91-.97-5.54-1.88-8.17-2.17-14.19-1.6-16.01,12.7-.91,12.66,14.68-.05,13.3,14.27-.93,12.66-2.63-.3-5.26-1.21-8.15-2.17"/><path class="cls-1" d="m90.95,129.67c-.66,0-1.32-.03-1.97-.09l-28.9-2.61c-.96-.09-1.67-.94-1.59-1.9.09-.96.94-1.67,1.9-1.59l28.9,2.61c4.23.38,8.52-.71,12.05-3.08l18.35-12.29c1.13-.76,1.47-2.27.78-3.44-.61-1.03-1.9-1.46-3.01-.98l-23.47,10.07c-.89.38-1.92-.03-2.3-.92-.38-.89.03-1.92.92-2.3l23.47-10.07c2.71-1.16,5.89-.13,7.4,2.41,1.64,2.77.83,6.34-1.84,8.13l-18.35,12.29c-3.65,2.45-7.97,3.75-12.34,3.75Z"/><path class="cls-1" d="m89.99,118.02c-.26,0-.53-.02-.79-.05l-16.78-2.13c-.96-.12-1.64-1-1.52-1.96.12-.96,1-1.63,1.96-1.52l16.78,2.13c.71.09,1.42-.1,1.99-.54.57-.44.93-1.08,1.02-1.79.18-1.41-.78-2.72-2.18-2.98l-24.76-4.58c-1.67-.31-3.36-.09-4.9.62l-6.6,3.07c-.88.41-1.92.03-2.32-.85-.41-.88-.03-1.92.85-2.32l6.6-3.07c2.2-1.02,4.63-1.33,7.02-.89l24.76,4.58c3.22.6,5.43,3.61,5.01,6.87-.21,1.64-1.04,3.1-2.35,4.11-1.1.85-2.41,1.3-3.78,1.3Z"/><path class="cls-1" d="m51.79,134.03c-.25,0-.5-.05-.74-.16-.42-.2-.75-.55-.91-.99l-9.37-25.66c-.16-.44-.14-.92.06-1.34s.55-.75.99-.91l9.72-3.55c.9-.33,1.91.13,2.24,1.04l9.37,25.66c.33.91-.14,1.91-1.04,2.24l-9.72,3.55c-.19.07-.4.11-.6.11Zm-7.13-26.37l8.17,22.38,6.43-2.35-8.17-22.38-6.43,2.35Z"/></svg>