<?xml version="1.0" encoding="UTF-8"?><svg id="Layer_1" xmlns="http://www.w3.org/2000/svg" viewBox="0 0 165 165"><defs><style>.cls-1{fill:#333;}</style></defs><path class="cls-1" d="m78.21,101.57c-.45,0-.9-.17-1.24-.51l-17.28-17.28c-.68-.68-.68-1.79,0-2.47l6.7-6.7c.66-.66,1.82-.66,2.47,0l9.35,9.35,19.99-19.99c.68-.68,1.79-.68,2.47,0l6.7,6.7c.33.33.51.77.51,1.24s-.18.91-.51,1.24l-27.93,27.93c-.34.34-.79.51-1.24.51Zm-14.81-19.03l14.81,14.81,25.46-25.46-4.23-4.23-19.99,19.99c-.66.66-1.82.66-2.47,0l-9.35-9.35-4.23,4.23Z"/><path class="cls-1" d="m82.5,135.13c-.42,0-.84-.15-1.17-.45l-10.31-9.32-13.59,2.93c-.88.19-1.76-.32-2.03-1.18l-4.25-13.24-13.24-4.25c-.86-.27-1.37-1.15-1.18-2.03l2.93-13.59-9.32-10.31c-.6-.67-.6-1.68,0-2.35l9.32-10.31-2.93-13.59c-.19-.88.32-1.76,1.18-2.03l13.24-4.25,4.25-13.24c.28-.86,1.15-1.36,2.03-1.18l13.59,2.93,10.31-9.32c.67-.6,1.68-.6,2.35,0l10.31,9.32,13.59-2.93c.88-.19,1.76.32,2.03,1.18l4.25,13.24,13.24,4.25c.86.27,1.37,1.15,1.18,2.03l-2.93,13.59,9.32,10.31c.6.67.6,1.68,0,2.35l-9.32,10.31,2.93,13.59c.19.88-.32,1.76-1.18,2.03l-13.24,4.25-4.25,13.24c-.27.86-1.16,1.36-2.03,1.18l-13.59-2.93-10.31,9.32c-.33.3-.75.45-1.17.45Zm-10.98-13.43c.43,0,.85.16,1.17.45l9.8,8.86,9.8-8.86c.42-.38.99-.53,1.54-.41l12.92,2.78,4.04-12.59c.17-.54.59-.96,1.13-1.13l12.59-4.04-2.78-12.92c-.12-.55.04-1.12.41-1.54l8.86-9.8-8.86-9.8c-.38-.42-.53-.99-.41-1.54l2.78-12.92-12.59-4.04c-.54-.17-.96-.59-1.13-1.13l-4.04-12.59-12.92,2.78c-.55.12-1.12-.04-1.54-.41l-9.8-8.86-9.8,8.86c-.42.38-.99.53-1.54.41l-12.92-2.78-4.04,12.58c-.17.54-.59.96-1.13,1.13l-12.59,4.04,2.78,12.92c.12.55-.04,1.12-.41,1.54l-8.86,9.8,8.86,9.8c.38.42.53.99.41,1.54l-2.78,12.92,12.59,4.04c.54.17.96.59,1.13,1.13l4.04,12.59,12.92-2.78c.12-.03.25-.04.37-.04Z"/></svg>