<?xml version="1.0" encoding="UTF-8"?><svg id="Layer_1" xmlns="http://www.w3.org/2000/svg" viewBox="0 0 165 165"><defs><style>.cls-1{fill:#333;}</style></defs><path class="cls-1" d="m134.88,106.28H26.4c-.97,0-1.75-.78-1.75-1.75v-63.25c0-3.46,2.82-6.28,6.28-6.28h70.24c.97,0,1.75.78,1.75,1.75s-.78,1.75-1.75,1.75H30.93c-1.53,0-2.78,1.25-2.78,2.78v61.5h104.97v-32.14c0-.97.78-1.75,1.75-1.75s1.75.78,1.75,1.75v33.89c0,.97-.78,1.75-1.75,1.75Z"/><path class="cls-1" d="m151.61,126.93H9.67c-1.48,0-2.8-.89-3.35-2.26s-.23-2.93.84-3.96l18.03-17.44c.33-.32.76-.49,1.22-.49h108.47c.45,0,.89.18,1.22.49l18.03,17.44c1.06,1.03,1.39,2.58.84,3.96-.56,1.37-1.87,2.26-3.35,2.26Zm-124.5-20.65l-17.53,16.94s-.06.05-.03.13c.03.07.07.07.11.07h141.95s.08,0,.11-.07c.03-.07,0-.1-.03-.13l-17.53-16.94H27.11Z"/><path class="cls-1" d="m149.95,134.42H11.32c-2.91,0-5.28-2.37-5.28-5.27v-5.96c0-.97.78-1.75,1.75-1.75s1.75.78,1.75,1.75v5.96c0,.98.8,1.77,1.78,1.77h138.63c.98,0,1.78-.8,1.78-1.77v-5.96c0-.97.78-1.75,1.75-1.75s1.75.78,1.75,1.75v5.96c0,2.91-2.37,5.27-5.28,5.27Z"/><path class="cls-1" d="m36.04,90.72c-.4,0-.8-.14-1.13-.42-.74-.63-.83-1.73-.2-2.47l32.31-38.01c.6-.7,1.63-.82,2.38-.27l30.51,22.66,24.82-28.91-5.95-5.08c-.51-.44-.73-1.12-.56-1.77.17-.65.69-1.14,1.35-1.28l22.65-4.57c.53-.11,1.07.04,1.48.38.41.35.63.87.61,1.4l-.97,23.09c-.03.67-.43,1.26-1.05,1.53-.61.27-1.33.16-1.84-.27l-6.17-5.26-31.42,36.6c-.6.7-1.63.81-2.37.26l-30.65-22.77-19.95,23.36c-.63.74-1.73.82-2.47.19-.73-.63-.82-1.73-.19-2.47l21.01-24.6c.6-.7,1.63-.82,2.38-.27l30.65,22.77,31.5-36.69c.63-.73,1.73-.82,2.46-.19l4.76,4.06.72-17.27-16.94,3.42,4.55,3.88c.35.3.57.73.61,1.2.04.46-.11.92-.42,1.28l-27.03,31.48c-.6.7-1.63.81-2.37.26l-30.5-22.66-31.25,36.76c-.35.41-.84.62-1.33.62Z"/></svg>