<?xml version="1.0" encoding="utf-8"?>
<!-- Generator: Adobe Illustrator 27.6.1, SVG Export Plug-In . SVG Version: 6.00 Build 0)  -->
<svg version="1.1" id="Layer_1" xmlns="http://www.w3.org/2000/svg" xmlns:xlink="http://www.w3.org/1999/xlink" x="0px" y="0px"
	 viewBox="0 0 2000 155.9" style="enable-background:new 0 0 2000 155.9;" xml:space="preserve">
<style type="text/css">
	.st0{fill:#99A4B0;}
	.st1{fill-rule:evenodd;clip-rule:evenodd;fill:#99A4B0;}
	.st2{opacity:0.2;fill:#99A4B0;enable-background:new    ;}
	.st3{fill:#FFFFFF;}
</style>
<path class="st0" d="M90,65.9l2.8,26c0.1,1,0.2,1.9,0.2,2.7c0,2.5-0.7,3.4-4.7,3.5v1c2.2-0.1,5.8-0.1,9.5-0.1s7.5,0.1,10,0.1v-1
	c-4.4-0.2-5-1.6-5.5-6.2l-2.6-23.4c-0.1-0.6-0.1-1.4-0.1-2c0-3.3,0.9-4.9,5.5-4.9v-1c-2.7,0.1-5.1,0.1-7.3,0.1
	c-3.5,0-6.3-0.1-8.1-0.1l-8,23.4l-8.3-23.4c-1.9,0.1-4.7,0.1-7.6,0.1s-5.9,0-8.2-0.1v1c4.4,0,5.4,1.5,5.4,4.9c0,0.6-0.1,1.3-0.1,2
	l-3,23.6c-0.6,4.2-1.7,6-5.8,6.1v0.9c2.1-0.1,4.2-0.1,6.6-0.1s5,0.1,7.9,0.1v-1c-5.1-0.2-6.5-0.8-6.5-4c0-0.7,0.1-1.7,0.2-2.6
	l2.8-25.8l12.5,33.5h0.4L90,65.9L90,65.9z M135.7,97v-0.6l-0.4-0.1c-1.1-0.2-1.4-0.8-1.4-2.5V83.3c0-6.1,0.1-9,0.2-10.8l-0.2-0.1
	c-2.9,0.9-7,1.8-10.7,2.1v0.7l0.6,0.2c1.6,0.5,1.8,1.4,1.8,2.3v17.5c-0.6,0.1-1.7,0.1-2.1,0.1c-3.7,0-4.5-2.2-4.5-7.5v-4.4
	c0-6.1,0.1-9,0.2-10.8l-0.2-0.1c-2.9,0.9-7.1,1.8-10.7,2.1v0.7l0.6,0.2c1.6,0.5,1.8,1.4,1.8,2.3v14.5c0,4.2,2.3,7.5,6.2,7.5
	c2.8,0,6.4-2.1,8.8-4c-0.1,1.6-0.2,2.9-0.3,3.9l0.2,0.1C128,98.8,132.7,97.7,135.7,97L135.7,97z M150.3,98.2l-0.3-0.1
	c-1.6-0.3-1.6-0.6-1.6-5.1V66.4c0-4.7,0.2-8.6,0.3-9.8l-0.3-0.1c-2.5,1-7.6,2.6-10.5,3.2V60l1.5,2.1c0.7,1,0.7,1.7,0.7,2.5v28.5
	c0,4.5,0,4.8-1.6,5.1l-0.3,0.1v0.9c1.3-0.1,3.7-0.1,6.1-0.1s4.9,0.1,6.1,0.1L150.3,98.2L150.3,98.2z M161.8,99.7c4.4,0,8.1-3,10-6.4
	l-0.2-0.3c-1.7,1-3.1,1.2-4.6,1.2c-2.3,0-4.4-0.3-4.4-2.7V76.1l7,0.1c0.7-0.6,1.7-2.6,1.7-3.6l-8.7,0.3c0-1.7,0.2-4.8,0.3-5.8
	l-0.3-0.2c-2.7,2.7-7.5,6.3-10.6,8.2v0.2l2.3,2.9c-0.1,2.8-0.1,8.4-0.1,15.5C154.3,97.3,157.5,99.7,161.8,99.7L161.8,99.7z
	 M184.2,63.7c0-2.7-2.1-4.7-4.6-4.7s-4.6,2-4.6,4.7c0,2.7,2.1,4.7,4.6,4.7S184.2,66.4,184.2,63.7z M185.5,98.2l-0.3-0.1
	c-1.6-0.3-1.6-0.6-1.6-5.1V80.8c0-4.7,0.1-7.5,0.2-8.7l-0.3-0.1c-2.4,1.2-7.3,3-10.2,3.9v0.3l1.2,2.1c0.7,1.1,0.7,1.7,0.7,2.5v12.5
	c0,4.5,0,4.8-1.6,5.1l-0.3,0.1v0.9c1.3-0.1,3.7-0.1,6.1-0.1s4.9,0.1,6.1,0.1L185.5,98.2L185.5,98.2z M187.6,87
	c0,7.6,5.2,12.6,12.4,12.6c4.7,0,9.5-3.3,11.1-8.3l-0.3-0.2c-1.6,2-3.7,2.8-5.8,2.8c-5.6,0-9.2-4.3-9.2-11.2c0-4.9,2.4-8.8,5.6-8.8
	s1.8,5.9,6,5.9c1.5,0,3.1-1.3,3.1-3c0-3.3-4.3-4.8-7.8-4.8C195,72.1,187.6,78.2,187.6,87L187.6,87z M227.3,72.1
	c-7.6,0-14.6,5.7-14.6,13.9s7,13.6,14.6,13.6S242,93.9,242,85.7S234.9,72.1,227.3,72.1z M227.3,98.4c-3.5,0-5.3-5.9-5.3-13
	s1.8-12,5.3-12s5.4,5.9,5.4,13S230.8,98.4,227.3,98.4z M255.4,63.6c0-2.7-2.1-4.7-4.6-4.7s-4.6,2-4.6,4.7s2.1,4.6,4.6,4.6
	S255.4,66.3,255.4,63.6z M256.6,98.2l-0.3-0.1c-1.6-0.3-1.6-0.6-1.6-5.1V80.8c0-4.7,0.1-7.5,0.2-8.7l-0.3-0.1
	c-2.4,1.2-7.3,3-10.2,3.9v0.3l1.2,2.1c0.7,1.1,0.7,1.7,0.7,2.5v12.5c0,4.5,0,4.8-1.6,5.1l-0.3,0.1v0.9c1.3-0.1,3.7-0.1,6.1-0.1
	s4.9,0.1,6.1,0.1L256.6,98.2L256.6,98.2z M286.6,98.2l-0.3-0.1c-1.6-0.3-1.6-0.6-1.6-5.1V79.6c0-4.4-2.8-7.5-6.5-7.5
	c-3,0-6.6,2.6-9,4.5c0.1-1.4,0.1-3.6,0.2-4.6l-0.3-0.1c-2.4,1.2-7.3,3-10.2,3.9v0.3l1.2,2.1c0.7,1.1,0.7,1.7,0.7,2.5v12.5
	c0,4.5,0,4.8-1.6,5.1l-0.3,0.1v0.9c1.3-0.1,3.7-0.1,6.1-0.1s4.9,0.1,6.1,0.1v-0.9l-0.3-0.1c-1.6-0.3-1.6-0.6-1.6-5.1V77.4
	c0.9-0.3,1.8-0.4,2.3-0.4c3.5,0,4.7,3.3,4.7,8.4v7.7c0,4.5,0,4.8-1.6,5.1l-0.3,0.1v0.9c1.3-0.1,3.7-0.1,6.1-0.1s4.9,0.1,6.1,0.1
	L286.6,98.2L286.6,98.2z M324.3,94.5c-7.8,0-13.8-6.7-13.8-16.8s5.4-15.6,12.2-15.6c3.4,0,5.9,1.4,7.8,3.6c1.6,1.8,3,4.5,4,7.3
	l0.6-0.3l-1.3-9.8c-3.7-1.8-7-2.9-11.4-2.9c-11.5,0-22,7.9-22,20.5c0,11.9,9.6,19.1,20,19.1c5.3,0,10.4-2,14.1-5.6l2.4-6.8l-0.6-0.3
	C333.6,92.3,329.5,94.5,324.3,94.5z M338.8,93.3c0,3.7,2.5,6.1,6,6.1c3,0,5-2.5,6.3-4.2c1,2.5,3,4.2,6.4,4.2s5.7-3,6-5.6l-0.2-0.1
	c-0.5,0.3-1,0.7-1.9,0.7c-1.5,0-2.2-0.8-2.2-2.6c0-3.5,0.3-9.9,0.3-13.9c0-4.4-5-5.9-8.3-5.9c-5.8,0-12.1,6.6-12.1,10.4
	c0,0.5,0.2,0.6,0.4,0.6c0.9,0,4.3-0.7,5.1-0.9c-0.3-1-0.5-2.5-0.5-3.7c0-1.6,0.7-2.4,2.3-2.4c3.4,0,4.7,2.2,4.7,4.1v4.7l-7.6,3.3
	C340.6,89.4,338.8,90.3,338.8,93.3L338.8,93.3z M351.2,85.8l-0.1,8.8c-0.3,0.1-0.6,0.2-1,0.2c-1.9,0-3.2-1.2-3.2-3.7
	c0-1.7,0.8-2.6,1.9-3.4L351.2,85.8L351.2,85.8z M379.3,112.3l-2.5-0.2c-1.5-0.1-1.6-0.4-1.6-4.9v-8.5c1.8,0.6,3.1,0.9,4.9,0.9
	c7.1,0,14.6-5.5,14.6-15.6c0-7.1-4.2-11.9-10.3-11.9c-4,0-7.4,3-9.2,4.7c0-1.2,0.1-3.6,0.2-4.7l-0.3-0.1c-2.4,1.2-7.3,3.1-10.2,3.9
	v0.3l1.2,2.1c0.7,1.1,0.7,1.7,0.7,2.5v26.6c0,4.5,0,4.8-1.6,5.1l-0.3,0.1v0.9c1.6-0.1,3.6-0.1,6.4-0.1s6.1,0.1,7.9,0.1V112.3z
	 M375.2,90.2v-13c0.9-0.2,1.9-0.3,2.7-0.3c4.7,0,7.8,4.2,7.8,10.3c0,6.6-2.4,10.6-6,10.6C376.9,97.9,375.2,95.9,375.2,90.2z
	 M408.1,63.7c0-2.7-2.1-4.7-4.6-4.7s-4.6,2-4.6,4.7c0,2.7,2.1,4.7,4.6,4.7S408.1,66.4,408.1,63.7z M409.4,98.2l-0.3-0.1
	c-1.6-0.3-1.6-0.6-1.6-5.1V80.8c0-4.7,0.1-7.5,0.2-8.7l-0.3-0.1c-2.4,1.2-7.3,3-10.2,3.9v0.3l1.2,2.1c0.7,1.1,0.7,1.7,0.7,2.5v12.5
	c0,4.5,0,4.8-1.6,5.1l-0.3,0.1v0.9c1.3-0.1,3.7-0.1,6.1-0.1s4.9,0.1,6.1,0.1L409.4,98.2L409.4,98.2z M420.9,99.7c4.4,0,8-3,10-6.4
	l-0.2-0.3c-1.6,1-3.1,1.2-4.6,1.2c-2.3,0-4.4-0.3-4.4-2.7V76.1l7,0.1c0.7-0.6,1.7-2.6,1.7-3.6l-8.7,0.3c0-1.7,0.2-4.8,0.3-5.8
	l-0.3-0.2c-2.7,2.7-7.5,6.3-10.6,8.2v0.2l2.3,2.9c-0.1,2.8-0.1,8.4-0.1,15.5C413.4,97.3,416.6,99.7,420.9,99.7L420.9,99.7z
	 M432.4,93.3c0,3.7,2.5,6.1,6,6.1c3,0,5-2.5,6.3-4.2c1,2.5,3,4.2,6.4,4.2s5.7-3,6-5.6l-0.2-0.1c-0.5,0.3-1,0.7-1.9,0.7
	c-1.5,0-2.2-0.8-2.2-2.6c0-3.5,0.3-9.9,0.3-13.9c0-4.4-5-5.9-8.3-5.9c-5.8,0-12.1,6.6-12.1,10.4c0,0.5,0.2,0.6,0.4,0.6
	c0.9,0,4.3-0.7,5.1-0.9c-0.3-1-0.5-2.5-0.5-3.7c0-1.6,0.7-2.4,2.3-2.4c3.4,0,4.7,2.2,4.7,4.1v4.7l-7.6,3.3
	C434.3,89.4,432.4,90.3,432.4,93.3L432.4,93.3z M444.9,85.8l-0.1,8.8c-0.3,0.1-0.6,0.2-1,0.2c-1.9,0-3.2-1.2-3.2-3.7
	c0-1.7,0.8-2.6,1.9-3.4L444.9,85.8L444.9,85.8z M470.7,98.2l-0.3-0.1c-1.6-0.3-1.6-0.6-1.6-5.1V66.4c0-4.7,0.2-8.6,0.3-9.8l-0.3-0.1
	c-2.5,1-7.6,2.6-10.5,3.2V60l1.5,2.1c0.7,1,0.7,1.7,0.7,2.5v28.5c0,4.5,0,4.8-1.6,5.1l-0.3,0.1v0.9c1.3-0.1,3.7-0.1,6.1-0.1
	s4.9,0.1,6.1,0.1L470.7,98.2L470.7,98.2z"/>
<path class="st0" d="M636.2,85.8c0,0,9.6-7.3,10-14.3c0.3-5.8-2-9.6-7.8-12.5s-9.4-3.6-15.9-8c-6.7-4.5-6-10.2-6-10.2
	s-2,1.6-2.2,4.8s2.7,6.2,6.3,8.6c3.8,2.5,7.5,3.7,7.5,3.7s-4.9-0.5-9.4-3.6s-5-6.7-5-6.7s-0.8,1.8-0.7,3.8c0.2,2.4,1.2,3.8,3.6,5.8
	c2.7,2.3,6.1,3.6,9.3,4.4s4.7,1,4.7,1s-2.1,0.5-6.2-0.3c-3.2-0.6-5.7-1.5-8-3.3c-1.2-1-2.3-2.6-2.3-2.6c-0.1,0.4-0.8,2.8,1.4,5
	c2.2,2.1,5,3.3,8,4c4.8,1.2,8.9,0.7,8.9,0.7s-2.2,1.4-8.1,0.6c-4.7-0.6-6.8-2.3-6.8-2.3s0.1,2.2,2.5,3.4c2.4,1.1,4.6,1.2,6.9,1.4
	c3.5,0.2,7.9-0.5,7.9-0.5s-2.7,1.2-6.5,1.5c-2,0.1-5.6-0.6-5.6-0.6s1,1.9,3.9,2.1c4.3,0.3,8.2-1,8.2-1s-2.2,1.2-4.7,1.4
	s-4.2,0-4.2,0s1.7,1.2,5,1.2s5-1,6.1-1.6c0,0,0.9,0.3,1,1.9S638.5,80.8,636.2,85.8L636.2,85.8z"/>
<path class="st0" d="M636.8,76.9c0,0-1.7,5.1-4,7.9c-3.6,4.3-6.6,5.1-6.6,5.1s1.8,0.6,4.6-1.3S636.6,83.5,636.8,76.9L636.8,76.9z"/>
<path class="st0" d="M643.5,62.2c0,0,1.7-1.9,3.9-2c2.7,0,3.8,2,3.8,2h-2.5c0,0-0.4,0.8,0,1.2s1.5,0.5,1.5,0.5s-1.2,0.5-1.6,1.3
	c-0.2,0.5-0.3,1.4-0.4,2c0,0.3,0.2,0.4,0.5,0.3c0.8-0.3,2.6-0.9,4.6-1.1c2.8-0.2,3.3,1.3,3.3,1.3s0.7-0.9,0.7-2.2s-0.4-2.5-1.8-3
	s-2.5-0.4-2.5-0.4s-2-2.7-5.1-2.7S643.5,62.2,643.5,62.2z"/>
<path class="st0" d="M565.3,98.5h6.2c1.1,0,2.1,0.3,2.7,0.8s1,1.3,1,2.4c0,0.6-0.2,1.2-0.5,1.7s-0.8,0.8-1.3,1.1v0
	c0.8,0.2,1.4,0.5,1.8,1.1c0.4,0.6,0.6,1.3,0.6,2.2c0,0.5-0.1,1-0.3,1.4s-0.5,0.8-0.8,1.1c-0.4,0.3-0.9,0.6-1.5,0.8s-1.3,0.3-2.1,0.3
	h-5.8L565.3,98.5L565.3,98.5z M567.5,103.9h3.6c0.5,0,1-0.2,1.3-0.4s0.5-0.7,0.5-1.3c0-0.6-0.2-1.1-0.5-1.3s-0.8-0.4-1.4-0.4h-3.6
	L567.5,103.9L567.5,103.9z M567.5,109.5h3.9c0.7,0,1.2-0.2,1.6-0.5c0.4-0.3,0.6-0.8,0.6-1.5s-0.2-1.1-0.6-1.4s-0.9-0.5-1.6-0.5h-3.9
	V109.5L567.5,109.5z"/>
<path class="st0" d="M581.5,98.5h2.2v10.8h6.5v1.9h-8.7L581.5,98.5L581.5,98.5z"/>
<path class="st0" d="M600.8,98.2c1,0,1.8,0.2,2.6,0.5c0.8,0.4,1.4,0.8,1.9,1.4c0.5,0.6,0.9,1.3,1.2,2.1c0.3,0.8,0.4,1.7,0.4,2.6
	s-0.1,1.8-0.4,2.6c-0.3,0.8-0.7,1.5-1.2,2.1c-0.5,0.6-1.2,1.1-1.9,1.4c-0.8,0.3-1.6,0.5-2.6,0.5s-1.8-0.2-2.6-0.5
	c-0.8-0.3-1.4-0.8-1.9-1.4c-0.5-0.6-0.9-1.3-1.2-2.1c-0.3-0.8-0.4-1.7-0.4-2.6s0.1-1.8,0.4-2.6c0.3-0.8,0.7-1.5,1.2-2.1
	s1.2-1.1,1.9-1.4C599,98.4,599.8,98.2,600.8,98.2z M600.8,100.1c-0.7,0-1.3,0.1-1.8,0.4s-0.9,0.6-1.2,1.1s-0.5,1-0.7,1.6
	c-0.2,0.6-0.2,1.2-0.2,1.8s0.1,1.2,0.2,1.8c0.2,0.6,0.4,1.1,0.7,1.6s0.7,0.8,1.2,1.1s1.1,0.4,1.8,0.4s1.3-0.1,1.8-0.4
	c0.5-0.3,0.9-0.6,1.2-1.1s0.5-1,0.7-1.6c0.2-0.6,0.2-1.2,0.2-1.8s-0.1-1.2-0.2-1.8c-0.2-0.6-0.4-1.1-0.7-1.6s-0.7-0.8-1.2-1.1
	C602.1,100.2,601.5,100.1,600.8,100.1z"/>
<path class="st0" d="M621.2,102.6c-0.1-0.4-0.2-0.7-0.4-1c-0.2-0.3-0.4-0.6-0.6-0.8s-0.6-0.4-0.9-0.5s-0.8-0.2-1.2-0.2
	c-0.7,0-1.3,0.1-1.8,0.4s-0.9,0.6-1.2,1.1s-0.5,1-0.7,1.6c-0.2,0.6-0.2,1.2-0.2,1.8s0.1,1.2,0.2,1.8c0.2,0.6,0.4,1.1,0.7,1.6
	s0.7,0.8,1.2,1.1s1.1,0.4,1.8,0.4c0.5,0,0.9-0.1,1.3-0.3c0.4-0.2,0.7-0.4,1-0.7c0.3-0.3,0.5-0.7,0.6-1.1s0.2-0.8,0.3-1.3h2.2
	c0,0.8-0.2,1.5-0.5,2.1s-0.7,1.2-1.1,1.6c-0.5,0.5-1,0.8-1.7,1.1c-0.6,0.2-1.3,0.4-2.1,0.4c-1,0-1.8-0.2-2.6-0.5
	c-0.8-0.3-1.4-0.8-1.9-1.4c-0.5-0.6-0.9-1.3-1.2-2.1c-0.3-0.8-0.4-1.7-0.4-2.6s0.1-1.8,0.4-2.6c0.3-0.8,0.7-1.5,1.2-2.1
	s1.2-1.1,1.9-1.4c0.8-0.4,1.6-0.5,2.6-0.5c0.7,0,1.4,0.1,2,0.3c0.6,0.2,1.2,0.5,1.7,0.9c0.5,0.4,0.9,0.8,1.2,1.4s0.5,1.2,0.5,1.8
	L621.2,102.6L621.2,102.6z"/>
<path class="st0" d="M629.1,98.5h2.2v5.8l5.7-5.8h2.7l-5.1,5.1l5.4,7.7h-2.8l-4.2-6.1l-1.8,1.8v4.3h-2.2L629.1,98.5L629.1,98.5z"/>
<path class="st0" d="M645,98.5l2.9,11.1h0l3.1-11.1h1.5l3.1,11.1h0l2.9-11.1h1.2l-3.5,12.7H655l-3.2-11.4h0l-3.2,11.4h-1.3
	l-3.5-12.7H645L645,98.5z"/>
<path class="st0" d="M670.8,98.5l5,12.7h-1.3l-1.5-4h-5.8l-1.5,4h-1.3l5.1-12.7H670.8L670.8,98.5z M672.5,106.3l-2.5-6.5l-2.5,6.5
	H672.5z"/>
<path class="st0" d="M683.1,98.5v11.7h7.1v1h-8.3V98.5H683.1z"/>
<path class="st0" d="M697.7,98.5v11.7h7.1v1h-8.3V98.5H697.7z"/>
<rect x="841.1" y="56.5" class="st0" width="13" height="13"/>
<rect x="857.3" y="56.5" class="st0" width="13" height="13"/>
<rect x="873.4" y="56.5" class="st0" width="13" height="13"/>
<rect x="873.4" y="40.3" class="st0" width="13" height="13"/>
<rect x="841.1" y="72.6" class="st0" width="13" height="13"/>
<rect x="857.3" y="72.6" class="st0" width="13" height="13"/>
<rect x="873.4" y="72.6" class="st0" width="13" height="13"/>
<path class="st0" d="M839.5,97c-0.5-0.7-1.2-1.2-2-1.6s-1.6-0.6-2.5-0.6c-1,0-2,0.2-2.8,0.6c-0.8,0.4-1.6,0.9-2.2,1.6
	s-1.1,1.5-1.4,2.4s-0.5,1.9-0.5,2.9c0,1,0.2,1.9,0.5,2.8s0.8,1.6,1.4,2.3c0.6,0.7,1.3,1.2,2.2,1.6s1.8,0.6,2.9,0.6s2-0.2,2.8-0.7
	s1.5-1.1,2-1.8l2.1,1.6c-0.1,0.2-0.4,0.5-0.7,0.8s-0.8,0.7-1.4,1.1c-0.6,0.4-1.3,0.7-2.1,0.9c-0.8,0.3-1.8,0.4-2.8,0.4
	c-1.5,0-2.8-0.3-4-0.8s-2.2-1.3-3-2.2s-1.5-1.9-1.9-3.1c-0.4-1.1-0.7-2.3-0.7-3.5c0-1.4,0.2-2.8,0.7-4c0.5-1.2,1.1-2.3,2-3.1
	s1.9-1.6,3-2.1s2.5-0.7,3.9-0.7c1.2,0,2.4,0.2,3.6,0.7s2.1,1.2,2.9,2.2L839.5,97L839.5,97z"/>
<path class="st0" d="M844.9,93h3.7l5.9,14h0.1l5.8-14h3.7v18.5h-2.5V96.3h0l-6.3,15.2h-1.7l-6.3-15.2h0v15.2h-2.5L844.9,93L844.9,93
	z"/>
<path class="st0" d="M881.7,97c-0.5-0.7-1.2-1.2-2-1.6s-1.6-0.6-2.5-0.6c-1,0-2,0.2-2.8,0.6c-0.8,0.4-1.6,0.9-2.2,1.6
	s-1.1,1.5-1.4,2.4s-0.5,1.9-0.5,2.9c0,1,0.2,1.9,0.5,2.8s0.8,1.6,1.4,2.3c0.6,0.7,1.3,1.2,2.2,1.6s1.8,0.6,2.9,0.6s2-0.2,2.8-0.7
	s1.5-1.1,2-1.8l2.1,1.6c-0.1,0.2-0.4,0.5-0.7,0.8s-0.8,0.7-1.4,1.1c-0.6,0.4-1.3,0.7-2.1,0.9c-0.8,0.3-1.8,0.4-2.8,0.4
	c-1.5,0-2.8-0.3-4-0.8s-2.2-1.3-3-2.2s-1.5-1.9-1.9-3.1c-0.4-1.1-0.7-2.3-0.7-3.5c0-1.4,0.2-2.8,0.7-4c0.5-1.2,1.1-2.3,2-3.1
	s1.9-1.6,3-2.1s2.5-0.7,3.9-0.7c1.2,0,2.4,0.2,3.6,0.7s2.1,1.2,2.9,2.2L881.7,97L881.7,97z"/>
<path class="st0" d="M900.1,97c-0.5-0.7-1.2-1.2-2-1.6s-1.6-0.6-2.5-0.6c-1,0-2,0.2-2.8,0.6c-0.8,0.4-1.6,0.9-2.2,1.6
	s-1.1,1.5-1.4,2.4s-0.5,1.9-0.5,2.9c0,1,0.2,1.9,0.5,2.8s0.8,1.6,1.4,2.3c0.6,0.7,1.3,1.2,2.2,1.6s1.8,0.6,2.9,0.6s2-0.2,2.8-0.7
	s1.5-1.1,2-1.8l2.1,1.6c-0.1,0.2-0.4,0.5-0.7,0.8s-0.8,0.7-1.4,1.1c-0.6,0.4-1.3,0.7-2.1,0.9c-0.8,0.3-1.8,0.4-2.8,0.4
	c-1.5,0-2.8-0.3-4-0.8s-2.2-1.3-3-2.2s-1.5-1.9-1.9-3.1c-0.4-1.1-0.7-2.3-0.7-3.5c0-1.4,0.2-2.8,0.7-4c0.5-1.2,1.1-2.3,2-3.1
	s1.9-1.6,3-2.1s2.5-0.7,3.9-0.7c1.2,0,2.4,0.2,3.6,0.7s2.1,1.2,2.9,2.2L900.1,97L900.1,97z"/>
<g id="svgg">
	<path id="path0" class="st1" d="M1057.3,52.3c0,0.1,0,0.2-0.1,0.2s-0.2,0.2-0.3,0.4c-0.1,0.2-0.3,0.4-0.3,0.4s-0.1,0.1-0.1,0.2
		s-0.1,0.2-0.1,0.2s-0.2,0.2-0.3,0.4s-0.3,0.5-0.4,0.6c-0.1,0.1-0.2,0.3-0.2,0.4s-0.1,0.2-0.2,0.3c-0.1,0-0.2,0.1-0.2,0.2
		s-0.1,0.3-0.2,0.4c-0.1,0.1-0.2,0.3-0.3,0.4s-0.1,0.3-0.2,0.3s-0.1,0.1-0.1,0.2s-0.1,0.2-0.1,0.2s-0.1,0.1-0.1,0.2
		s-0.1,0.2-0.2,0.3c-0.1,0-0.2,0.2-0.2,0.3s-0.1,0.3-0.2,0.4s-0.2,0.2-0.2,0.3s-0.1,0.2-0.1,0.2s-0.1,0.1-0.2,0.3s-0.1,0.3-0.2,0.3
		s-0.1,0.1-0.1,0.2s0,0.2-0.1,0.2s-0.2,0.2-0.3,0.4c-0.1,0.2-0.3,0.4-0.3,0.4s-0.1,0.1-0.1,0.2s-0.1,0.2-0.1,0.2s-0.1,0.1-0.2,0.3
		s-0.1,0.3-0.2,0.3s-0.1,0.1-0.1,0.2s-0.1,0.3-0.2,0.4c-0.1,0.1-0.2,0.3-0.3,0.4s-0.1,0.3-0.2,0.3s-0.1,0.1-0.1,0.2
		s-0.1,0.2-0.2,0.3s-0.2,0.3-0.2,0.4s-0.1,0.2-0.2,0.3c-0.1,0-0.2,0.2-0.2,0.3c0,0.1-0.1,0.2-0.1,0.2s-0.1,0.1-0.1,0.2
		s-0.1,0.2-0.1,0.2s-0.1,0.1-0.2,0.3c0,0.1-0.2,0.3-0.3,0.4c-0.1,0.1-0.2,0.3-0.2,0.4s-0.1,0.2-0.2,0.3c-0.1,0-0.2,0.2-0.2,0.3
		s-0.1,0.2-0.1,0.2s-0.1,0.1-0.1,0.2s-0.1,0.2-0.1,0.2s-0.2,0.2-0.2,0.3c-0.1,0.2-0.2,0.4-0.3,0.4c-0.1,0-0.2,0.2-0.2,0.3
		s-0.1,0.2-0.2,0.3c-0.1,0-0.2,0.2-0.2,0.3s-0.1,0.2-0.1,0.2s-0.1,0.1-0.1,0.2s-0.1,0.2-0.1,0.2s-0.2,0.2-0.3,0.4
		c-0.1,0.2-0.2,0.4-0.3,0.4s-0.1,0.1-0.1,0.2s-0.1,0.3-0.2,0.4c-0.3,0.3-0.1,0.6,0.3,0.8c0.1,0,0.3,0.1,0.3,0.2s0.1,0.1,0.2,0.1
		s0.3,0.1,0.4,0.2c0.1,0.1,0.3,0.3,0.5,0.3c0.2,0,0.4,0.1,0.4,0.2s0.1,0.1,0.2,0.1s0.2,0.1,0.3,0.2c0.1,0.1,0.3,0.3,0.5,0.3
		c0.2,0,0.4,0.2,0.5,0.3c0.2,0.2,0.8,0.6,1,0.6c0.1,0,0.2,0.1,0.3,0.2c0.2,0.2,0.9,0.6,1.1,0.6c0.1,0,0.2,0.1,0.3,0.2
		c0.1,0.1,0.3,0.3,0.5,0.3c0.2,0,0.4,0.2,0.5,0.3s0.2,0.2,0.3,0.2s0.2,0.1,0.2,0.1s0.2,0.1,0.4,0.2s0.5,0.2,0.6,0.3
		c0.1,0.1,0.2,0.2,0.3,0.2s0.1,0.1,0.1,0.1s0.1,0.1,0.2,0.1s0.3,0.1,0.3,0.2s0.2,0.2,0.3,0.2s0.2,0,0.2,0.1s0.2,0.2,0.5,0.3
		c0.8,0.4,0.9,0.4,0.9,0.5c0,0.1,0.1,0.1,0.3,0.1s0.3-0.1,0.3-0.1s0.1-0.1,0.2-0.1s0.2-0.1,0.2-0.1s0.1-0.1,0.3-0.2s0.3-0.1,0.3-0.2
		s0.1-0.1,0.2-0.1s0.2-0.1,0.2-0.1s0.1-0.1,0.2-0.1s0.2-0.1,0.2-0.1s0.1-0.1,0.3-0.2s0.3-0.1,0.3-0.2s0.1-0.1,0.2-0.1
		s0.2-0.1,0.2-0.1s0.1-0.1,0.2-0.1s0.2-0.1,0.2-0.1s0.1-0.2,0.3-0.2s0.3-0.1,0.3-0.2s0.2-0.2,0.4-0.2c0.2-0.1,0.4-0.2,0.5-0.3
		c0.1-0.1,0.2-0.2,0.3-0.2s0.2-0.1,0.2-0.1s0.1-0.1,0.2-0.1s0.2-0.1,0.3-0.2c0.1-0.1,0.2-0.2,0.4-0.2s0.2-0.1,0.2-0.1
		s0.1-0.1,0.2-0.1s0.2-0.1,0.2-0.1s0.1-0.1,0.2-0.1s0.2-0.1,0.2-0.1s0.1-0.1,0.3-0.2s0.3-0.1,0.3-0.2s0.1-0.1,0.1-0.1
		s0.2-0.1,0.3-0.2c0.1-0.1,0.3-0.2,0.6-0.3c0.2-0.1,0.4-0.1,0.4-0.2s0.1-0.1,0.2-0.1s0.2-0.1,0.3-0.2c0.1-0.1,0.3-0.2,0.5-0.3
		s0.4-0.2,0.5-0.3s0.2-0.2,0.4-0.2s0.2-0.1,0.2-0.1s0.2-0.1,0.3-0.2c0.3-0.1,0.6-0.5,0.4-0.6c-0.1,0-0.1-0.1-0.1-0.2
		s-0.1-0.3-0.2-0.4c-0.1-0.1-0.2-0.3-0.3-0.4c0-0.1-0.1-0.3-0.2-0.3s-0.1-0.1-0.1-0.1s-0.1-0.2-0.2-0.3c-0.1-0.1-0.2-0.3-0.3-0.5
		s-0.2-0.4-0.3-0.5s-0.2-0.3-0.2-0.4s-0.1-0.1-0.1-0.1s-0.1-0.1-0.2-0.3c0-0.1-0.2-0.3-0.3-0.4c-0.1-0.1-0.2-0.3-0.2-0.4
		s-0.1-0.2-0.2-0.2s-0.2-0.2-0.2-0.3s-0.1-0.2-0.1-0.2s-0.1-0.1-0.1-0.2s0-0.2-0.1-0.2s-0.2-0.2-0.3-0.4c-0.1-0.2-0.3-0.4-0.3-0.4
		s-0.1-0.1-0.1-0.2s-0.1-0.2-0.2-0.3c-0.1,0-0.2-0.2-0.2-0.3s-0.1-0.2-0.1-0.2s-0.1-0.1-0.1-0.2s-0.1-0.2-0.2-0.3s-0.2-0.3-0.2-0.4
		s-0.1-0.2-0.2-0.3s-0.2-0.1-0.2-0.2s-0.1-0.3-0.2-0.4c-0.1-0.1-0.2-0.3-0.3-0.5c-0.1-0.2-0.2-0.4-0.3-0.5c-0.1-0.1-0.2-0.3-0.2-0.4
		s-0.1-0.2-0.2-0.2s-0.2-0.2-0.2-0.3s-0.1-0.3-0.2-0.4c-0.1-0.1-0.2-0.3-0.3-0.4c0-0.1-0.1-0.3-0.2-0.3s-0.1-0.1-0.1-0.2
		s-0.1-0.2-0.1-0.2s-0.1-0.1-0.1-0.2s0-0.2-0.1-0.2s-0.2-0.2-0.3-0.4c-0.1-0.2-0.3-0.4-0.3-0.4s-0.1-0.1-0.1-0.2s-0.1-0.2-0.1-0.2
		s-0.2-0.1-0.2-0.3c0-0.2-0.1-0.3-0.2-0.3s-0.1-0.1-0.1-0.2s-0.1-0.3-0.2-0.4c-0.1-0.1-0.2-0.3-0.3-0.4c0-0.1-0.1-0.3-0.2-0.3
		s-0.1-0.1-0.1-0.2s0-0.2-0.1-0.2s-0.2-0.2-0.3-0.5c-0.1-0.3-0.3-0.6-0.4-0.7s-0.2-0.3-0.3-0.4c0-0.1-0.1-0.3-0.2-0.3
		s-0.1-0.1-0.1-0.1c0-0.2-0.3-0.5-0.6-0.5C1057.4,52.2,1057.3,52.2,1057.3,52.3 M1057.9,57.9c0,0.1,0.1,0.3,0.2,0.4
		c0.1,0.1,0.2,0.3,0.3,0.5s0.2,0.4,0.3,0.5c0.1,0.1,0.2,0.3,0.2,0.4s0.1,0.2,0.1,0.2s0.1,0.1,0.2,0.3s0.2,0.3,0.3,0.4
		c0.1,0.1,0.3,0.4,0.4,0.6c0.1,0.2,0.2,0.4,0.3,0.4s0.1,0.1,0.1,0.2s0.1,0.2,0.1,0.2s0.1,0.1,0.2,0.3c0,0.1,0.2,0.3,0.3,0.4
		c0.1,0.1,0.2,0.2,0.2,0.3s0.1,0.1,0.1,0.1s0.2,0.1,0.2,0.3c0,0.2,0.1,0.3,0.2,0.3s0.1,0.1,0.1,0.2s0.1,0.3,0.2,0.4
		c0.1,0.1,0.2,0.3,0.3,0.4s0.1,0.3,0.2,0.3s0.1,0.1,0.1,0.2s0,0.2,0.1,0.2s0.2,0.2,0.3,0.5s0.3,0.6,0.4,0.7c0.1,0.1,0.2,0.3,0.3,0.4
		c0,0.1,0.1,0.3,0.2,0.3s0.1,0.1,0.1,0.1s0.1,0.2,0.2,0.3c0.1,0.1,0.2,0.3,0.3,0.5s0.2,0.4,0.3,0.5s0.2,0.3,0.2,0.4s0,0.1,0.1,0.1
		s0.2,0.2,0.3,0.4c0.2,0.4,0.1,0.7-0.2,0.7c-0.1,0-0.1,0-0.1,0.1s-0.2,0.2-0.5,0.3c-0.3,0.1-0.5,0.3-0.5,0.3s-0.1,0.1-0.2,0.1
		s-0.2,0.1-0.2,0.1s-0.1,0.1-0.2,0.1s-0.3,0.1-0.3,0.2s-0.2,0.2-0.3,0.2s-0.2,0.1-0.2,0.1s-0.1,0.1-0.2,0.1s-0.2,0.1-0.2,0.1
		s-0.1,0.1-0.2,0.1s-0.3,0.1-0.4,0.2c-0.1,0.1-0.2,0.2-0.3,0.2s-0.2,0.1-0.2,0.1s-0.1,0.1-0.2,0.1s-0.2,0.1-0.3,0.2
		c-0.1,0.1-0.2,0.2-0.4,0.2s-0.2,0.1-0.2,0.1s-0.1,0.1-0.2,0.1s-0.2,0.1-0.2,0.1s-0.1,0.1-0.2,0.1s-0.2,0.1-0.3,0.2
		c0,0.1-0.2,0.2-0.3,0.2s-0.2,0.1-0.2,0.1s-0.1,0.1-0.1,0.1s-0.2,0.1-0.3,0.2c-0.3,0.3-1,0.3-1.2,0c-0.1-0.1-0.3-0.2-0.3-0.2
		s-0.1-0.1-0.1-0.1s-0.1-0.1-0.2-0.1s-0.3-0.1-0.3-0.2c0-0.1-0.2-0.2-0.3-0.2s-0.2-0.1-0.2-0.1s-0.1-0.1-0.2-0.1s-0.2-0.1-0.2-0.1
		s-0.1-0.1-0.2-0.1s-0.3-0.1-0.4-0.2s-0.2-0.2-0.3-0.2s-0.2-0.1-0.2-0.1s-0.1-0.1-0.2-0.1s-0.2-0.1-0.3-0.2
		c-0.1-0.1-0.2-0.2-0.4-0.2s-0.2-0.1-0.2-0.1s-0.1-0.1-0.2-0.1s-0.2-0.1-0.2-0.1s-0.1-0.1-0.2-0.1s-0.2-0.1-0.3-0.2
		c0-0.1-0.2-0.2-0.3-0.2s-0.2-0.1-0.2-0.1s-0.1-0.1-0.2-0.1s-0.2-0.1-0.2-0.1s-0.1-0.1-0.3-0.2s-0.3-0.1-0.3-0.2s-0.1-0.1-0.2-0.1
		s-0.2-0.1-0.2-0.1s-0.1-0.1-0.1-0.1c-0.3,0-0.4-0.3-0.2-0.7c0.1-0.2,0.2-0.4,0.3-0.4s0.1-0.1,0.1-0.1s0.1-0.2,0.2-0.3
		c0.1-0.1,0.2-0.3,0.3-0.4s0.1-0.3,0.2-0.3s0.1-0.1,0.1-0.2s0.1-0.2,0.1-0.2s0.1-0.1,0.1-0.2s0.1-0.2,0.1-0.2s0.1-0.1,0.2-0.3
		c0-0.1,0.2-0.3,0.3-0.4c0.1-0.1,0.2-0.3,0.3-0.4c0-0.1,0.1-0.3,0.2-0.3s0.1-0.1,0.1-0.2s0.1-0.2,0.1-0.2s0.1-0.1,0.1-0.2
		s0.1-0.2,0.1-0.2s0.1-0.1,0.2-0.3c0-0.1,0.2-0.3,0.3-0.4c0.1-0.1,0.2-0.3,0.2-0.4s0.1-0.2,0.2-0.2s0.2-0.2,0.2-0.3s0.1-0.3,0.2-0.4
		c0.1-0.1,0.3-0.4,0.4-0.6c0.1-0.2,0.3-0.4,0.3-0.4s0.1-0.1,0.1-0.2s0.1-0.2,0.2-0.3c0.1,0,0.2-0.2,0.3-0.4c0.1-0.2,0.2-0.3,0.2-0.3
		s0.1-0.1,0.1-0.2s0.1-0.2,0.1-0.2s0.1-0.1,0.2-0.3s0.1-0.3,0.2-0.3s0.1-0.1,0.1-0.2s0.1-0.2,0.2-0.3c0.1,0,0.2-0.2,0.3-0.4
		c0.1-0.2,0.2-0.3,0.2-0.3s0.1-0.1,0.1-0.2s0.1-0.2,0.1-0.2s0.1-0.1,0.1-0.2c0-0.2,0.2-0.3,0.4-0.3
		C1057.8,57.7,1057.9,57.8,1057.9,57.9 M1070.9,73.7c-0.1,0.1-0.3,0.2-0.5,0.3s-0.4,0.2-0.5,0.3c-0.1,0.1-0.2,0.1-0.3,0.1
		s-0.2,0.1-0.2,0.1s-0.1,0.1-0.2,0.1s-0.2,0-0.2,0.1c0,0.1-0.3,0.3-0.7,0.4c-0.1,0-0.2,0.1-0.2,0.2s-0.1,0.1-0.2,0.1
		s-0.2,0.1-0.2,0.1s-0.1,0.1-0.3,0.2s-0.3,0.1-0.3,0.2s-0.1,0.1-0.2,0.1s-0.2,0.1-0.2,0.1s-0.1,0.1-0.2,0.1s-0.2,0.1-0.2,0.1
		s-0.1,0.2-0.3,0.2s-0.3,0.1-0.3,0.2s-0.1,0.1-0.2,0.1s-0.2,0.1-0.3,0.2c-0.1,0.1-0.3,0.2-0.5,0.3c-0.2,0-0.4,0.1-0.4,0.2
		s-0.1,0.1-0.2,0.1s-0.3,0.1-0.4,0.2c-0.1,0.1-0.3,0.2-0.5,0.3c-0.2,0.1-0.4,0.2-0.5,0.3c-0.1,0.1-0.2,0.2-0.3,0.2
		c-0.2,0-1.1,0.5-1.1,0.6c0,0.1-0.2,0.2-0.4,0.2c-0.2,0-0.4,0.2-0.6,0.3c-0.1,0.1-0.3,0.2-0.4,0.2s-0.2,0.1-0.2,0.1
		s-0.1,0.1-0.3,0.2c-0.2,0-0.4,0.2-0.5,0.3c-0.1,0.1-0.2,0.2-0.4,0.2s-0.2,0.1-0.2,0.1s-0.1,0.1-0.3,0.2s-0.3,0.1-0.3,0.2
		s-0.1,0.1-0.3,0.1s-0.3-0.1-0.3-0.1s-0.1-0.2-0.3-0.2s-0.3-0.1-0.3-0.2s-0.1-0.1-0.2-0.1s-0.2-0.1-0.2-0.1s-0.1-0.1-0.2-0.1
		s-0.2-0.1-0.2-0.1s-0.1-0.1-0.3-0.2s-0.3-0.1-0.3-0.2s-0.1-0.1-0.2-0.1s-0.3-0.1-0.4-0.2c-0.1-0.1-0.3-0.3-0.5-0.3
		c-0.2,0-0.4-0.1-0.4-0.2s-0.1-0.1-0.1-0.1s-0.2-0.1-0.4-0.2s-0.4-0.3-0.5-0.3s-0.4-0.2-0.5-0.3c-0.1-0.1-0.3-0.2-0.5-0.3
		s-0.3-0.1-0.3-0.2s-0.1-0.1-0.2-0.1s-0.3-0.1-0.4-0.2c-0.1-0.1-0.3-0.3-0.5-0.3c-0.2,0-0.4-0.2-0.4-0.3c0-0.1-0.2-0.2-0.3-0.2
		s-0.2-0.1-0.2-0.1s-0.2-0.1-0.4-0.2s-0.5-0.2-0.6-0.3c-0.1-0.1-0.2-0.2-0.3-0.2s-0.1-0.1-0.1-0.1s-0.1-0.1-0.3-0.2
		s-0.3-0.1-0.3-0.2s-0.1-0.1-0.2-0.1s-0.2-0.1-0.2-0.1s-0.1-0.1-0.2-0.1s-0.2-0.1-0.2-0.1s-0.1-0.1-0.2-0.1s-0.3-0.1-0.3-0.2
		c0-0.1-0.2-0.2-0.3-0.2s-0.2-0.1-0.2-0.1s-0.1-0.1-0.2-0.1s-0.2-0.1-0.3-0.2c-0.1-0.1-0.3-0.2-0.5-0.3c-0.2-0.1-0.4-0.2-0.4-0.2
		c0-0.4-0.9,0-1.1,0.5c-0.1,0.2-0.2,0.4-0.3,0.5c-0.2,0.2-0.6,0.9-0.6,1.1c0,0.1-0.1,0.1-0.1,0.1s-0.1,0.1-0.1,0.2s-0.1,0.2-0.1,0.2
		s-0.1,0.1-0.1,0.3s-0.1,0.4-0.2,0.5c-0.1,0.1-0.2,0.4-0.2,0.6s-0.1,0.3-0.1,0.3s-0.1,0.1-0.1,0.3s-0.1,0.4-0.1,0.4
		c-0.1,0.1-0.2,0.5-0.2,0.9c0,0.5-0.1,0.8-0.2,0.8s-0.1,1.2-0.1,2.7s0,2.7,0.1,2.7s0.1,0.4,0.2,0.8c0,0.5,0.1,0.9,0.2,0.9
		c0.1,0.1,0.1,0.3,0.1,0.4s0.1,0.3,0.1,0.3s0.1,0.2,0.1,0.3s0.1,0.4,0.2,0.6c0.1,0.1,0.2,0.3,0.2,0.5c0,0.1,0.1,0.3,0.1,0.3
		s0.1,0.1,0.1,0.2s0.1,0.2,0.1,0.2s0.1,0.1,0.1,0.1c0,0.2,0.4,1,0.6,1.1c0.1,0.1,0.2,0.3,0.3,0.5c0,0.2,0.2,0.4,0.3,0.5
		s0.2,0.3,0.2,0.4s0.1,0.1,0.1,0.1s0.1,0.1,0.2,0.2s0.2,0.3,0.3,0.3c0.1,0,0.2,0.2,0.2,0.2c0,0.2,2,2.2,2.2,2.2
		c0.1,0,0.2,0.1,0.2,0.2s0.2,0.3,0.3,0.3s0.2,0.1,0.2,0.2s0.1,0.1,0.1,0.1s0.2,0.1,0.3,0.2c0.1,0.1,0.3,0.2,0.5,0.3
		c0.2,0.1,0.4,0.2,0.5,0.3c0.2,0.2,0.9,0.6,1.1,0.6c0.1,0,0.1,0.1,0.1,0.1s0.1,0.1,0.2,0.1s0.2,0.1,0.2,0.1s0.1,0.1,0.3,0.1
		s0.3,0.1,0.3,0.1c0,0.1,0.3,0.2,0.5,0.2s0.5,0.1,0.5,0.2s0.1,0.1,0.3,0.1s0.4,0.1,0.4,0.1s0.5,0.2,0.9,0.2c0.5,0,0.8,0.1,0.8,0.2
		s1.2,0.1,2.7,0.1s2.7,0,2.7-0.1s0.4-0.1,0.8-0.2c0.5,0,0.9-0.1,0.9-0.2c0.1-0.1,0.3-0.1,0.4-0.1s0.3,0,0.3-0.1s0.2-0.1,0.5-0.2
		s0.5-0.1,0.5-0.2c0-0.1,0.2-0.1,0.3-0.1s0.3-0.1,0.3-0.1s0.1-0.1,0.2-0.1s0.2-0.1,0.2-0.1s0.1-0.1,0.1-0.1c0.2,0,1-0.4,1-0.5
		c0-0.1,0.1-0.1,0.2-0.1s0.2-0.1,0.2-0.1s0.2-0.2,0.4-0.3c0.2-0.1,0.4-0.2,0.4-0.3s0.1-0.1,0.2-0.1s0.2-0.1,0.2-0.1s0.1-0.1,0.2-0.2
		s0.3-0.2,0.3-0.3c0-0.1,0.2-0.2,0.2-0.2c0.2,0,2.2-2,2.2-2.2c0-0.1,0.1-0.2,0.2-0.2s0.3-0.2,0.3-0.3s0.1-0.2,0.2-0.2
		s0.1-0.1,0.1-0.1s0.1-0.2,0.2-0.3c0.1-0.1,0.2-0.3,0.3-0.5c0.1-0.2,0.2-0.4,0.3-0.5c0.2-0.2,0.6-0.9,0.6-1.1c0-0.1,0.1-0.1,0.1-0.1
		s0.1-0.1,0.1-0.2s0.1-0.2,0.1-0.2s0.1-0.1,0.1-0.3s0.1-0.3,0.1-0.3c0.1,0,0.2-0.3,0.2-0.5c0-0.3,0.1-0.5,0.2-0.5s0.1-0.1,0.1-0.3
		s0.1-0.4,0.1-0.4c0.1-0.1,0.2-0.5,0.2-0.9c0-0.5,0.1-0.8,0.2-0.8s0.1-1.2,0.1-2.7s0-2.7-0.1-2.7s-0.1-0.4-0.2-0.8
		c0-0.5-0.1-0.9-0.2-0.9c-0.1-0.1-0.1-0.3-0.1-0.4s0-0.3-0.1-0.3s-0.1-0.2-0.2-0.5s-0.1-0.5-0.2-0.5c-0.1,0-0.1-0.2-0.1-0.3
		s-0.1-0.3-0.1-0.3s-0.1-0.1-0.1-0.2s-0.1-0.2-0.1-0.2s-0.1-0.1-0.1-0.1c0-0.2-0.4-1-0.6-1.1c-0.1-0.1-0.2-0.3-0.3-0.5
		C1071.7,73.7,1071.2,73.4,1070.9,73.7"/>
	<path id="path4" class="st1" d="M1222.6,63c-0.3,0-0.6,0.1-0.6,0.2s-0.1,0.1-0.3,0.1s-0.3,0-0.3,0.1s-0.2,0.1-0.3,0.1
		s-0.4,0-0.4,0.1s-0.2,0.1-0.5,0.2c-0.2,0-0.4,0.1-0.4,0.2c0,0.1-0.1,0.1-0.2,0.1s-0.2,0-0.2,0.1s-0.2,0.2-0.4,0.2
		c-0.2,0.1-0.4,0.2-0.5,0.3s-0.2,0.2-0.3,0.2S1218,65,1218,65s-0.1,0.1-0.3,0.2s-0.4,0.3-0.6,0.5s-0.4,0.4-0.4,0.4
		c-0.1,0-1.1,1-1.1,1.1c0,0.1-0.2,0.3-0.4,0.4c-0.2,0.2-0.4,0.4-0.4,0.5c0,0.1-0.1,0.3-0.3,0.4s-0.4,0.5-0.5,0.8
		c-0.1,0.3-0.3,0.5-0.3,0.5s-0.1,0.1-0.1,0.2s-0.1,0.2-0.1,0.2s-0.1,0.1-0.1,0.2s-0.1,0.2-0.1,0.3c-0.1,0-0.1,0.2-0.2,0.5
		c0,0.2-0.1,0.4-0.2,0.4s-0.1,0.1-0.1,0.3s-0.1,0.3-0.1,0.3s-0.1,0.3-0.2,0.8c0,0.4-0.1,0.8-0.2,0.8s-0.1,0.2-0.1,0.5
		s-0.1,0.5-0.1,0.5c-0.1,0-0.1,0.8-0.1,2.3s0,2.3,0.1,2.3c0.1,0,0.1,0.3,0.1,0.6s0,0.6,0.1,0.6c0.1,0,0.1,0.3,0.2,0.6
		c0.1,0.6,0.3,1.2,0.4,1.2c0.1,0,0.1,0.1,0.1,0.2c0,0.2,0.3,1.1,0.5,1.1c0.1,0,0.1,0.1,0.1,0.3s0.1,0.2,0.1,0.2s0.1,0.1,0.2,0.3
		s0.1,0.3,0.2,0.3s0.1,0.1,0.1,0.2s0.1,0.2,0.2,0.3s0.2,0.2,0.2,0.3s0.2,0.3,0.4,0.5c0.2,0.2,0.4,0.4,0.4,0.5c0,0.2,1.2,1.4,1.3,1.4
		c0.1,0,0.2,0.1,0.4,0.3s0.3,0.3,0.4,0.3s0.2,0.1,0.4,0.3s0.4,0.3,0.4,0.3s0.1,0.1,0.1,0.1s0.1,0.1,0.2,0.1s0.2,0.1,0.2,0.1
		s0.2,0.1,0.4,0.2c0.2,0,0.4,0.1,0.4,0.2s0.1,0.1,0.2,0.1s0.2,0.1,0.2,0.1s0.1,0.1,0.2,0.1s0.2,0.1,0.2,0.1s0.3,0.1,0.7,0.2
		c0.4,0,0.7,0.1,0.7,0.2s0.2,0.1,0.5,0.1s0.5,0.1,0.5,0.1s0.8,0.1,2.2,0.1s2.2,0,2.2-0.1c0-0.1,0.2-0.1,0.5-0.1s0.5-0.1,0.5-0.1
		s0.2-0.1,0.4-0.1c0.2,0,0.5-0.1,0.7-0.2c0.2-0.1,0.4-0.2,0.6-0.2s0.2-0.1,0.2-0.1s0.1-0.1,0.2-0.1s0.2-0.1,0.2-0.1s0.2-0.1,0.4-0.2
		s0.4-0.1,0.4-0.2s0.1-0.1,0.2-0.2c0.1-0.1,0.4-0.2,0.6-0.3s0.4-0.3,0.4-0.3s0.1-0.1,0.1-0.1s0.3-0.2,0.6-0.5
		c0.3-0.3,0.6-0.5,0.7-0.6s0.2-0.2,0.3-0.3c0-0.1,0.3-0.5,0.7-0.8c0.3-0.3,0.6-0.7,0.7-0.8c0-0.1,0.1-0.2,0.2-0.2s0.1-0.1,0.1-0.1
		s0.1-0.2,0.2-0.4s0.3-0.4,0.3-0.6c0-0.2,0.1-0.3,0.2-0.3s0.1-0.1,0.1-0.2s0.1-0.2,0.1-0.2s0.1-0.1,0.1-0.2s0.1-0.2,0.1-0.2
		s0.1-0.2,0.2-0.4c0-0.2,0.1-0.4,0.2-0.4s0.1-0.1,0.1-0.3s0.1-0.3,0.1-0.3s0.1-0.3,0.2-0.7c0-0.4,0.1-0.7,0.2-0.7s0.1-0.3,0.1-0.6
		s0.1-0.6,0.1-0.6s0.1-0.8,0.1-2.1s0-2.1-0.1-2.1c-0.1,0-0.1-0.3-0.1-0.6s0-0.6-0.1-0.6s-0.1-0.3-0.2-0.6c-0.1-0.6-0.3-1.2-0.4-1.2
		c-0.1,0-0.1-0.1-0.1-0.2c0-0.3-0.4-1.2-0.5-1.2c-0.1,0-0.1-0.1-0.1-0.2s0-0.2-0.1-0.2s-0.2-0.2-0.2-0.4s-0.2-0.4-0.3-0.5
		c-0.1,0-0.2-0.2-0.2-0.3s-0.1-0.2-0.1-0.2s-0.1-0.1-0.2-0.2c-0.1-0.2-0.4-0.6-1.4-1.6c-0.1-0.1-0.3-0.4-0.6-0.7s-0.6-0.6-0.6-0.6
		s-0.2-0.1-0.4-0.3s-0.3-0.3-0.4-0.3s-0.2-0.1-0.2-0.1s-0.1-0.1-0.2-0.1s-0.2-0.1-0.2-0.1s-0.1-0.1-0.3-0.2s-0.3-0.1-0.3-0.2
		s-0.1-0.1-0.2-0.1s-0.2-0.1-0.2-0.1s-0.1-0.1-0.3-0.1s-0.4-0.1-0.6-0.2c-0.2-0.1-0.4-0.2-0.6-0.2c-0.1,0-0.3-0.1-0.3-0.1
		s-0.1-0.1-0.3-0.1s-0.3-0.1-0.3-0.1C1228.4,63.1,1223.7,63,1222.6,63 M1098.1,76.8v13.7h18.2v-5.2h-12.8V63.1h-5.4V76.8
		 M1138.4,63.2c0,0-0.1,6.2-0.1,13.7v13.6h5.6V63.1h-2.7C1139.7,63.1,1138.5,63.2,1138.4,63.2 M1168.3,76.8v13.7h5.5
		c3,0,5.5,0,5.5-0.1s0.3-0.1,0.8-0.2c0.8-0.1,1.4-0.3,1.4-0.4c0-0.1,0.2-0.1,0.3-0.1s0.3-0.1,0.3-0.1s0.1-0.1,0.1-0.1
		c0.2,0,0.9-0.4,1-0.5c0,0,0.2-0.1,0.3-0.2s0.3-0.1,0.3-0.2s0.1-0.1,0.2-0.1s0.2-0.1,0.2-0.1s0.1-0.1,0.1-0.1s0.3-0.1,0.4-0.3
		s0.3-0.3,0.4-0.3c0.2,0,2.4-2.3,2.4-2.4c0-0.1,0.1-0.2,0.3-0.4s0.3-0.3,0.3-0.4s0.1-0.3,0.2-0.3c0.1-0.1,0.2-0.2,0.2-0.3
		s0.1-0.2,0.1-0.2s0.1-0.2,0.2-0.4c0-0.2,0.1-0.4,0.2-0.4s0.1-0.1,0.1-0.2s0.1-0.2,0.1-0.2s0.1-0.1,0.1-0.2s0.1-0.2,0.1-0.2
		s0.1-0.1,0.1-0.3s0.1-0.4,0.2-0.6c0.1-0.2,0.2-0.4,0.2-0.6s0.1-0.3,0.1-0.3s0.1-0.2,0.1-0.4s0.1-0.4,0.1-0.5c0.2-0.2,0.2-5,0-5.2
		c-0.1-0.1-0.1-0.3-0.1-0.5s-0.1-0.4-0.1-0.4s-0.1-0.2-0.1-0.4s-0.1-0.4-0.1-0.4s-0.1-0.2-0.2-0.5c0-0.3-0.1-0.5-0.2-0.5
		s-0.1-0.1-0.1-0.2s-0.1-0.2-0.1-0.2s-0.1-0.1-0.1-0.2s-0.1-0.2-0.1-0.2s-0.1-0.1-0.1-0.1c0-0.2-0.4-1-0.6-1.2
		c-0.1-0.1-0.2-0.2-0.2-0.3s-0.1-0.2-0.3-0.4s-0.3-0.3-0.3-0.4c0-0.1-1.1-1.2-1.5-1.6c-0.1-0.1-0.2-0.2-0.3-0.4
		c-0.1-0.1-0.2-0.2-0.4-0.2s-0.3-0.1-0.4-0.3c-0.1-0.2-0.3-0.3-0.4-0.3s-0.2-0.1-0.3-0.2s-0.2-0.2-0.3-0.2s-0.2-0.1-0.3-0.2
		c-0.1-0.2-0.9-0.7-1.2-0.7c-0.1,0-0.2-0.1-0.2-0.1s-0.1-0.1-0.3-0.1s-0.3,0-0.3-0.1c-0.1-0.1-1.2-0.5-1.4-0.5c-0.1,0-0.2,0-0.2-0.1
		s-0.2-0.1-0.5-0.1s-0.5,0-0.5-0.1c0-0.1-1.9-0.1-5.5-0.1h-5.5L1168.3,76.8 M1226.9,68.4c0,0.1,0.2,0.1,0.4,0.1s0.4,0.1,0.4,0.1
		s0.1,0.1,0.2,0.1s0.2,0.1,0.2,0.1s0.2,0.1,0.4,0.2c0.2,0,0.4,0.1,0.4,0.2s0.1,0.1,0.1,0.1c0.1,0,0.5,0.3,1.4,1.2
		c0.5,0.5,0.9,1,1,1.2c0,0.1,0.1,0.2,0.2,0.2s0.1,0.1,0.1,0.2s0.1,0.2,0.1,0.2s0.1,0.2,0.2,0.4c0,0.2,0.1,0.4,0.2,0.4
		s0.1,0.1,0.1,0.3s0.1,0.3,0.1,0.3s0.1,0.1,0.1,0.2s0.1,0.2,0.1,0.3c0.1,0,0.1,0.7,0.1,2.7s0,2.6-0.1,2.7c-0.1,0-0.1,0.2-0.1,0.3
		s0,0.3-0.1,0.3c-0.1,0-0.5,0.8-0.5,1c0,0.1-0.1,0.1-0.1,0.1s-0.1,0.1-0.1,0.2s-0.1,0.2-0.1,0.2s-0.1,0.1-0.1,0.1
		c0,0.1-0.1,0.2-0.4,0.6c-0.1,0.1-0.1,0.2-0.1,0.2c0,0.2-0.8,1-1,1c0,0-0.2,0.1-0.4,0.3s-0.4,0.3-0.4,0.3s-0.2,0.1-0.2,0.1
		s-0.1,0.1-0.2,0.1s-0.2,0.1-0.2,0.1s-0.1,0.1-0.2,0.1s-0.2,0.1-0.2,0.1s-0.3,0.2-0.6,0.2s-0.6,0.1-0.6,0.2c0,0.1-0.3,0.1-0.5,0.1
		s-0.4,0.1-0.4,0.1s-0.3,0.1-0.8,0.1s-0.8-0.1-0.8-0.1s-0.3-0.1-0.6-0.1s-0.6-0.1-0.6-0.1s-0.2-0.1-0.5-0.2c-0.3,0-0.5-0.1-0.5-0.2
		s-0.1-0.1-0.2-0.1s-0.2-0.1-0.2-0.1s-0.1-0.1-0.2-0.1s-0.2-0.1-0.2-0.1s-0.1-0.1-0.2-0.1s-0.3-0.1-0.4-0.3
		c-0.2-0.2-0.3-0.3-0.3-0.3c-0.2,0-1-0.8-1-1c0-0.1-0.1-0.2-0.4-0.6c-0.1-0.1-0.1-0.2-0.1-0.3s-0.1-0.1-0.1-0.1s-0.1-0.1-0.1-0.2
		s-0.1-0.2-0.2-0.3s-0.2-0.2-0.2-0.3c0-0.3-0.3-0.8-0.4-0.8c-0.1,0-0.1-0.1-0.1-0.3s-0.1-0.3-0.1-0.3s-0.2-0.6-0.2-1.3
		c0-0.7-0.1-1.3-0.2-1.3c-0.1-0.1-0.1-0.1,0-0.2c0.1-0.1,0.2-0.6,0.2-1.3c0-0.7,0.1-1.2,0.2-1.2c0.1,0,0.1-0.1,0.1-0.2
		c0-0.2,0.3-0.8,0.4-0.8c0,0,0.1-0.2,0.2-0.4s0.1-0.4,0.2-0.4s0.1-0.1,0.1-0.2s0.1-0.2,0.1-0.2s0.1-0.1,0.1-0.2s0.2-0.4,0.4-0.6
		s0.4-0.4,0.4-0.5c0-0.2,0.6-0.8,0.8-0.8c0.1,0,0.2-0.1,0.4-0.3s0.3-0.3,0.4-0.3s0.1-0.1,0.1-0.1s0.2-0.1,0.4-0.2s0.4-0.1,0.4-0.2
		s0.1-0.1,0.2-0.1s0.2-0.1,0.2-0.1s0.1-0.1,0.3-0.1s0.3-0.1,0.3-0.1C1223.3,68.1,1226.8,68.1,1226.9,68.4 M1177.7,68.4
		c0,0.1,0.3,0.1,0.5,0.1s0.4,0.1,0.4,0.1s0.2,0.1,0.4,0.1s0.4,0.1,0.4,0.1s0.2,0.1,0.4,0.2s0.4,0.1,0.4,0.2s0.1,0.1,0.2,0.1
		s0.2,0.1,0.2,0.1s0.1,0.1,0.2,0.1s0.2,0.1,0.2,0.1s0.1,0.1,0.2,0.2c0.3,0.1,1.9,1.7,1.9,1.9c0,0.1,0.1,0.2,0.2,0.3
		c0.1,0.1,0.2,0.3,0.3,0.5c0,0.2,0.1,0.3,0.2,0.3s0.1,0.1,0.1,0.2s0.1,0.2,0.1,0.2s0.1,0.1,0.1,0.3s0.1,0.4,0.2,0.6
		c0.1,0.2,0.2,0.4,0.2,0.6c0,0.1,0.1,0.3,0.1,0.3s0.1,0.2,0.1,0.4s0.1,0.5,0.1,0.5s0.1,0.6,0.1,1.2c0,0.7-0.1,1.1-0.1,1.1
		c-0.1,0-0.1,0.2-0.1,0.4s-0.1,0.5-0.1,0.6c-0.1,0.1-0.2,0.5-0.3,0.9c-0.1,0.4-0.2,0.7-0.3,0.7s-0.1,0.1-0.1,0.2s-0.1,0.2-0.1,0.2
		s-0.1,0.1-0.1,0.2s-0.1,0.3-0.3,0.4s-0.3,0.3-0.3,0.4s-0.1,0.1-0.1,0.1s-0.1,0.1-0.2,0.2c0,0.1-0.2,0.3-0.4,0.4
		c-0.2,0.1-0.4,0.3-0.4,0.4c0,0.1-0.2,0.2-0.3,0.3c-0.1,0-0.4,0.2-0.6,0.4s-0.5,0.4-0.7,0.4c-0.2,0-0.4,0.1-0.4,0.2
		s-0.1,0.1-0.2,0.1s-0.2,0.1-0.2,0.1s-0.2,0.1-0.3,0.1s-0.3,0.1-0.3,0.1s-0.3,0.1-0.7,0.2s-0.8,0.1-0.9,0.2s-1,0.1-2,0.1h-1.8v-17
		h1.9C1176.8,68.3,1177.6,68.3,1177.7,68.4"/>
</g>
<g>
	<path class="st0" d="M1451.7,67l-6.2,17.3c0,0.1-0.1,0.2-0.2,0.2c-0.1,0.1-0.2,0.1-0.2,0.1h-0.5c-0.1,0-0.2,0-0.2-0.1
		s-0.1-0.1-0.2-0.2l-4.6-12.1l-4.6,12.1c0,0.1-0.1,0.2-0.2,0.2c-0.1,0.1-0.2,0.1-0.2,0.1h-0.5c-0.1,0-0.2,0-0.2-0.1
		s-0.1-0.1-0.2-0.2l-6.2-17.3c-0.1-0.3,0-0.4,0.3-0.4h1.9c0.1,0,0.2,0,0.3,0.1c0.1,0.1,0.1,0.1,0.2,0.2l4.4,13.1l4.5-12
		c0-0.1,0.1-0.2,0.2-0.2c0.1-0.1,0.2-0.1,0.2-0.1h0.4c0.1,0,0.2,0,0.2,0.1s0.1,0.1,0.2,0.2l4.6,12l4.3-13.1c0-0.1,0.1-0.2,0.2-0.2
		c0.1-0.1,0.2-0.1,0.3-0.1h1.9C1451.7,66.6,1451.8,66.8,1451.7,67"/>
	<path class="st0" d="M1476,75.4c0-4.2-2.8-7.1-6.6-7.1s-6.6,2.9-6.6,7.1s2.8,7.1,6.6,7.1S1476,79.6,1476,75.4L1476,75.4z
		 M1478.5,75.4c0,1.8-0.6,3.5-1.6,5c-1,1.5-2.4,2.6-4.1,3.3c-1.7,0.7-3.5,0.8-5.2,0.5c-1.8-0.4-3.4-1.2-4.6-2.5
		c-1.3-1.3-2.1-2.9-2.5-4.6s-0.2-3.6,0.5-5.2c0.7-1.6,1.9-3.1,3.3-4c1.5-1,3.2-1.5,5-1.5c1.2,0,2.4,0.2,3.5,0.7c1.1,0.4,2.1,1.1,3,2
		s1.5,1.9,2,3C1478.4,73.1,1478.6,74.3,1478.5,75.4L1478.5,75.4L1478.5,75.4z"/>
	<path class="st0" d="M1495.4,75.7c3.6,0,4.8-1.5,4.8-3.5s-1.2-3.5-4.8-3.5h-4.1v7C1491.3,75.6,1495.4,75.6,1495.4,75.7z
		 M1502.6,83.6c0.1,0.1,0.1,0.2,0.1,0.2c0,0.1,0,0.2-0.1,0.2c0,0.1-0.1,0.1-0.2,0.2s-0.2,0.1-0.3,0.1h-1.7c-0.1,0-0.1,0-0.2,0
		c-0.1,0-0.1-0.1-0.1-0.1l-4.3-6.4h-4.6v6.2c0,0.1,0,0.2-0.1,0.3s-0.2,0.1-0.3,0.1h-1.7c-0.1,0-0.2,0-0.3-0.1
		c-0.1-0.1-0.1-0.2-0.1-0.2V67c0-0.1,0-0.2,0.1-0.2c0.1-0.1,0.2-0.1,0.3-0.1h6.6c4.6,0,6.9,2.4,6.9,5.5c0,1.2-0.4,2.5-1.2,3.4
		c-0.8,1-1.9,1.6-3.1,1.8L1502.6,83.6L1502.6,83.6L1502.6,83.6z"/>
	<path class="st0" d="M1531,66.3h0.6c0,0,0.1,0,0.1,0s0.1,0,0.1,0.1c0,0,0.1,0.1,0.1,0.1c0,0.1,0,0.1,0,0.1v17.2c0,0,0,0.1,0,0.1
		c0,0.1,0,0.1-0.1,0.1c0,0-0.1,0.1-0.1,0.1c-0.1,0-0.1,0-0.1,0h-1.7c0,0-0.1,0-0.1,0c-0.1,0-0.1,0-0.1-0.1c0,0-0.1-0.1-0.1-0.1
		c0-0.1,0-0.1,0-0.1V71.7l-6.8,9.7c0,0-0.1,0.1-0.1,0.1c0,0-0.1,0-0.2,0s-0.1,0-0.2,0c0,0-0.1-0.1-0.1-0.1l-6.8-9.7v12.2
		c0,0,0,0.1,0,0.1c0,0.1,0,0.1-0.1,0.1c0,0-0.1,0.1-0.1,0.1c-0.1,0-0.1,0-0.1,0h-1.7c0,0-0.1,0-0.1,0c-0.1,0-0.1,0-0.1-0.1
		c0,0-0.1-0.1-0.1-0.1c0-0.1,0-0.1,0-0.1V66.7c0,0,0-0.1,0-0.1c0-0.1,0-0.1,0.1-0.1c0,0,0.1-0.1,0.1-0.1c0.1,0,0.1,0,0.1,0h0.5
		c0.1,0,0.2,0,0.3,0.1c0.1,0,0.2,0.1,0.2,0.2l8.1,11.2l8.1-11.2c0.1-0.1,0.1-0.1,0.2-0.2S1530.9,66.3,1531,66.3"/>
	<path class="st0" d="M1559,67v17c0,0.1,0,0.2-0.1,0.2c-0.1,0.1-0.2,0.1-0.3,0.1h-1.7c-0.1,0-0.2,0-0.3-0.1
		c-0.1-0.1-0.1-0.2-0.1-0.2v-7.7h-11.1v7.7c0,0.1,0,0.2-0.1,0.2c-0.1,0.1-0.2,0.1-0.3,0.1h-1.7c-0.1,0-0.2,0-0.3-0.1
		c-0.1-0.1-0.1-0.2-0.1-0.2V67c0-0.1,0-0.2,0.1-0.3s0.2-0.1,0.3-0.1h1.7c0.1,0,0.2,0,0.3,0.1c0.1,0.1,0.1,0.2,0.1,0.3v7.2h11.1V67
		c0-0.1,0-0.2,0.1-0.3s0.2-0.1,0.3-0.1h1.7c0.1,0,0.2,0,0.3,0.1C1559,66.8,1559,66.9,1559,67L1559,67z"/>
	<path class="st0" d="M1585,75.4c0-4.2-2.8-7.1-6.6-7.1s-6.6,2.9-6.6,7.1s2.8,7.1,6.6,7.1S1585,79.6,1585,75.4L1585,75.4z
		 M1587.5,75.4c0,1.8-0.6,3.5-1.6,5c-1,1.5-2.4,2.6-4.1,3.3c-1.7,0.7-3.5,0.8-5.2,0.5c-1.8-0.4-3.4-1.2-4.6-2.5
		c-1.3-1.3-2.1-2.9-2.5-4.6s-0.2-3.6,0.5-5.2c0.7-1.6,1.9-3.1,3.3-4c1.5-1,3.2-1.5,5-1.5c1.2,0,2.4,0.2,3.5,0.7c1.1,0.4,2.1,1.1,3,2
		s1.5,1.9,2,3C1587.3,73.1,1587.6,74.3,1587.5,75.4L1587.5,75.4L1587.5,75.4z"/>
	<path class="st0" d="M1610.5,82.6v1.3c0,0,0,0.1,0,0.1c0,0.1,0,0.1-0.1,0.1c0,0-0.1,0.1-0.1,0.1c-0.1,0-0.1,0-0.1,0h-11.9
		c-0.1,0-0.2,0-0.3-0.1c-0.1-0.1-0.1-0.2-0.1-0.2V67c0-0.1,0-0.2,0.1-0.3s0.2-0.1,0.3-0.1h1.7c0.1,0,0.2,0,0.3,0.1
		c0.1,0.1,0.1,0.2,0.1,0.2v15.3h9.8c0,0,0.1,0,0.1,0c0.1,0,0.1,0,0.1,0.1c0,0,0.1,0.1,0.1,0.1C1610.5,82.5,1610.5,82.6,1610.5,82.6"
		/>
	<path class="st0" d="M1633.6,82.6v1.3c0,0,0,0.1,0,0.1c0,0.1,0,0.1-0.1,0.1c0,0-0.1,0.1-0.1,0.1c-0.1,0-0.1,0-0.1,0h-12.8
		c-0.1,0-0.2,0-0.3-0.1c-0.1-0.1-0.1-0.2-0.1-0.3V67c0-0.1,0-0.2,0.1-0.3s0.2-0.1,0.3-0.1h12.5c0,0,0.1,0,0.1,0c0.1,0,0.1,0,0.1,0.1
		c0,0,0.1,0.1,0.1,0.1c0,0.1,0,0.1,0,0.1v1.3c0,0,0,0.1,0,0.1c0,0.1,0,0.1-0.1,0.1c0,0-0.1,0.1-0.1,0.1c-0.1,0-0.1,0-0.1,0h-10.5
		v5.5h9.3c0,0,0.1,0,0.1,0c0.1,0,0.1,0,0.1,0.1c0,0,0.1,0.1,0.1,0.1c0,0,0,0.1,0,0.1v1.3c0,0,0,0.1,0,0.1c0,0.1,0,0.1-0.1,0.1
		c0,0-0.1,0.1-0.1,0.1c-0.1,0-0.1,0-0.1,0h-9.3v6.1h10.8c0,0,0.1,0,0.1,0c0.1,0,0.1,0,0.1,0.1c0,0,0.1,0.1,0.1,0.1
		C1633.6,82.5,1633.6,82.5,1633.6,82.6"/>
	<path class="st0" d="M1387.8,54.5c-5.7,0-11.2,2.3-15.3,6.3c-4.1,4.1-6.3,9.6-6.4,15.3c0,5.7,2.3,11.2,6.3,15.3
		c4.1,4.1,9.6,6.3,15.3,6.3s11.2-2.3,15.3-6.3s6.3-9.6,6.3-15.3c0-5.7-2.3-11.2-6.4-15.3C1399.1,56.8,1393.6,54.5,1387.8,54.5
		L1387.8,54.5L1387.8,54.5z M1387.8,99.6c-6.2,0-12.2-2.5-16.6-6.9c-4.4-4.4-6.9-10.4-6.9-16.6c0-6.2,2.5-12.2,6.9-16.6
		s10.4-6.9,16.6-6.9s12.2,2.5,16.6,6.9c4.4,4.4,6.9,10.4,6.9,16.6c0,6.2-2.5,12.2-6.9,16.6S1394.1,99.6,1387.8,99.6L1387.8,99.6z"/>
	<path class="st0" d="M1390.8,58.5c-4.8,0-9.4,1.9-12.8,5.3c-3.4,3.4-5.3,8-5.3,12.7c0,4.8,1.9,9.4,5.3,12.7s8,5.3,12.8,5.3
		s9.4-1.9,12.8-5.3s5.3-8,5.3-12.7s-1.9-9.4-5.3-12.7C1400.2,60.4,1395.6,58.5,1390.8,58.5L1390.8,58.5L1390.8,58.5z M1390.8,95.9
		c-5.2,0-10.1-2.1-13.7-5.7c-3.7-3.6-5.7-8.6-5.7-13.7c0-5.2,2.1-10.1,5.7-13.7c3.7-3.6,8.6-5.7,13.7-5.7c5.2,0,10.1,2,13.7,5.7
		c3.7,3.6,5.7,8.6,5.7,13.7c0,5.2-2.1,10.1-5.7,13.7C1400.9,93.9,1396,95.9,1390.8,95.9L1390.8,95.9z"/>
	<path class="st0" d="M1393.8,62.4c-3.8,0-7.5,1.5-10.2,4.2s-4.2,6.4-4.2,10.2c0,3.8,1.5,7.5,4.2,10.2s6.4,4.2,10.2,4.2
		s7.5-1.5,10.2-4.2c2.7-2.7,4.2-6.4,4.2-10.2c0-3.8-1.5-7.5-4.2-10.2C1401.3,63.9,1397.6,62.4,1393.8,62.4
		C1393.8,62.4,1393.8,62.4,1393.8,62.4z M1393.8,92.2c-4.1,0-8-1.6-10.9-4.5s-4.5-6.8-4.5-10.9c0-4.1,1.6-8,4.5-10.9
		s6.8-4.5,10.9-4.5c4.1,0,8,1.6,10.9,4.5c2.9,2.9,4.5,6.8,4.5,10.9c0,4.1-1.6,8-4.5,10.9S1397.9,92.2,1393.8,92.2L1393.8,92.2
		L1393.8,92.2z"/>
	<path class="st0" d="M1396.7,66.3c-2.9,0-5.6,1.1-7.6,3.2c-2,2-3.2,4.8-3.2,7.6c0,2.9,1.1,5.6,3.2,7.6c2,2,4.8,3.2,7.6,3.2
		s5.6-1.1,7.6-3.2c2-2,3.2-4.8,3.2-7.6c0-2.9-1.1-5.6-3.2-7.6C1402.4,67.5,1399.6,66.3,1396.7,66.3L1396.7,66.3z M1396.7,88.5
		c-3,0-5.9-1.2-8.1-3.3c-2.1-2.1-3.3-5-3.3-8.1c0-3,1.2-5.9,3.3-8.1c2.1-2.1,5-3.3,8.1-3.3s5.9,1.2,8.1,3.3c2.1,2.1,3.3,5,3.3,8.1
		c0,3-1.2,5.9-3.3,8.1C1402.7,87.3,1399.8,88.5,1396.7,88.5L1396.7,88.5z"/>
</g>
<circle class="st2" cx="1773.3" cy="76.2" r="35.6"/>
<path class="st2" d="M1776.9,46.7l1.9,5.5c0.8,2.3,3.5,3.3,5.6,2l5-3c3.1-1.9,6.9,1.3,5.6,4.7l-2.1,5.5c-0.9,2.3,0.6,4.8,3,5.2
	l5.8,0.9c3.6,0.6,4.4,5.4,1.3,7.2l-5.1,2.8c-2.1,1.2-2.6,4-1,5.9l3.8,4.4c2.4,2.8-0.1,7-3.6,6.3l-5.7-1.1c-2.4-0.5-4.6,1.4-4.6,3.8
	l0.1,5.8c0.1,3.7-4.5,5.3-6.8,2.5l-3.7-4.5c-1.5-1.9-4.4-1.9-6,0l-3.7,4.5c-2.3,2.8-6.9,1.2-6.8-2.5l0.1-5.8c0-2.4-2.2-4.3-4.6-3.8
	l-5.7,1.1c-3.6,0.7-6-3.5-3.6-6.3l3.8-4.4c1.6-1.8,1.1-4.7-1-5.9l-5.1-2.8c-3.2-1.8-2.3-6.6,1.3-7.2l5.8-0.9c2.4-0.4,3.8-2.9,3-5.2
	l-2.1-5.5c-1.3-3.4,2.4-6.5,5.6-4.7l5,3c2.1,1.2,4.8,0.3,5.6-2l1.9-5.5C1770.8,43.3,1775.7,43.3,1776.9,46.7L1776.9,46.7z"/>
<path class="st2" d="M1786.6,49.8l-0.1,5.8c0,2.4,2.2,4.3,4.6,3.8l5.7-1.1c3.6-0.7,6,3.5,3.6,6.3l-3.8,4.4c-1.6,1.8-1.1,4.7,1,5.9
	l5.1,2.9c3.2,1.8,2.3,6.6-1.3,7.2l-5.8,0.9c-2.4,0.4-3.9,2.9-3,5.2l2.1,5.5c1.3,3.4-2.4,6.5-5.6,4.7l-5-3c-2.1-1.2-4.8-0.3-5.6,2
	l-1.9,5.5c-1.2,3.4-6.1,3.4-7.3,0l-1.9-5.5c-0.8-2.3-3.5-3.3-5.6-2.1l-5,3c-3.1,1.9-6.9-1.3-5.6-4.7l2.1-5.5c0.9-2.3-0.6-4.8-3-5.2
	l-5.8-0.9c-3.6-0.6-4.4-5.4-1.2-7.2l5.1-2.8c2.1-1.2,2.6-4,1.1-5.9l-3.8-4.4c-2.4-2.8,0.1-7,3.7-6.3l5.7,1.1
	c2.4,0.5,4.6-1.4,4.6-3.8l-0.1-5.8c0-3.7,4.5-5.3,6.8-2.5l3.7,4.5c1.5,1.9,4.4,1.9,6,0l3.7-4.5C1782,44.5,1786.6,46.1,1786.6,49.8
	L1786.6,49.8z"/>
<path class="st0" d="M1774.6,51.3l3.9,7.4c0.4,0.7,1.2,1,1.9,0.7l7.8-3.2c1.1-0.5,2.3,0.5,2,1.7l-1.8,8.2c-0.2,0.8,0.3,1.5,1,1.8
	l8,2.6c1.2,0.4,1.4,1.9,0.5,2.6l-6.6,5.2c-0.6,0.5-0.8,1.3-0.3,2l4.4,7.1c0.6,1-0.1,2.3-1.3,2.3l-8.4-0.3c-0.8,0-1.4,0.5-1.6,1.3
	L1783,99c-0.2,1.2-1.6,1.7-2.5,0.9l-6.2-5.6c-0.6-0.5-1.4-0.5-2,0l-6.2,5.6c-0.9,0.8-2.3,0.3-2.5-0.9l-1.2-8.3
	c-0.1-0.8-0.8-1.3-1.6-1.3l-8.4,0.3c-1.2,0-2-1.3-1.3-2.3l4.4-7.1c0.4-0.7,0.3-1.5-0.3-2l-6.6-5.2c-0.9-0.7-0.7-2.2,0.5-2.6l8-2.6
	c0.7-0.2,1.2-1,1-1.8l-1.8-8.2c-0.2-1.2,0.9-2.2,2-1.7l7.8,3.2c0.7,0.3,1.5,0,1.9-0.7l3.9-7.4C1772.5,50.2,1774,50.2,1774.6,51.3
	L1774.6,51.3z"/>
<polygon class="st3" points="1773.3,61.6 1776.9,71.2 1787.1,71.7 1779.2,78.1 1781.8,87.9 1773.3,82.4 1764.7,87.9 1767.4,78.1 
	1759.4,71.7 1769.6,71.2 "/>
<path class="st0" d="M1824.1,52.1h7.9v2.4h-5.4v2.2h5.1V59h-5.1v2.4h5.7v2.4h-8.2V52.1L1824.1,52.1z"/>
<path class="st0" d="M1845.2,59.3c0,0.7-0.1,1.3-0.3,1.9c-0.2,0.6-0.5,1.1-0.9,1.5s-0.9,0.8-1.5,1c-0.6,0.2-1.3,0.4-2.1,0.4
	s-1.5-0.1-2.2-0.4s-1.1-0.6-1.5-1s-0.7-0.9-0.9-1.5c-0.2-0.6-0.3-1.2-0.3-1.9v-7.2h2.6v7.1c0,0.4,0.1,0.7,0.2,1s0.3,0.6,0.5,0.8
	s0.5,0.4,0.8,0.5c0.3,0.1,0.6,0.2,0.9,0.2s0.7-0.1,0.9-0.2c0.3-0.1,0.5-0.3,0.7-0.5s0.4-0.5,0.5-0.8s0.2-0.6,0.2-1v-7.1h2.6
	L1845.2,59.3L1845.2,59.3z"/>
<path class="st0" d="M1848.6,52.1h4.5c0.6,0,1.2,0.1,1.7,0.2s1,0.3,1.4,0.6s0.7,0.6,1,1.1s0.3,1,0.3,1.7c0,0.8-0.2,1.5-0.6,2.1
	s-1.1,0.9-1.9,1.1l3,4.9h-3.1l-2.4-4.7h-1.3v4.7h-2.6C1848.6,63.8,1848.6,52.1,1848.6,52.1z M1851.1,56.9h1.5c0.2,0,0.5,0,0.7,0
	s0.5-0.1,0.7-0.2s0.4-0.2,0.5-0.4s0.2-0.4,0.2-0.7c0-0.3-0.1-0.5-0.2-0.7s-0.3-0.3-0.5-0.4c-0.2-0.1-0.4-0.2-0.6-0.2s-0.5,0-0.7,0
	h-1.7L1851.1,56.9L1851.1,56.9z"/>
<path class="st0" d="M1859.6,57.9c0-0.9,0.2-1.8,0.5-2.5c0.3-0.8,0.8-1.4,1.3-1.9s1.2-0.9,2-1.2s1.6-0.4,2.5-0.4s1.8,0.1,2.5,0.4
	c0.8,0.3,1.4,0.7,2,1.2s1,1.2,1.3,1.9s0.5,1.6,0.5,2.5s-0.2,1.8-0.5,2.5c-0.3,0.8-0.8,1.4-1.3,1.9s-1.2,0.9-2,1.2s-1.6,0.4-2.5,0.4
	s-1.8-0.1-2.5-0.4s-1.4-0.7-2-1.2s-1-1.2-1.3-1.9S1859.6,58.9,1859.6,57.9z M1862.3,57.9c0,0.5,0.1,1,0.3,1.5
	c0.2,0.5,0.4,0.8,0.7,1.2c0.3,0.3,0.7,0.6,1.2,0.8s0.9,0.3,1.5,0.3s1.1-0.1,1.5-0.3c0.4-0.2,0.8-0.5,1.2-0.8
	c0.3-0.3,0.6-0.7,0.7-1.2c0.2-0.5,0.3-1,0.3-1.5s-0.1-1-0.3-1.5s-0.4-0.9-0.7-1.2c-0.3-0.3-0.7-0.6-1.2-0.8
	c-0.4-0.2-0.9-0.3-1.5-0.3s-1.1,0.1-1.5,0.3c-0.4,0.2-0.8,0.5-1.2,0.8c-0.3,0.3-0.6,0.7-0.7,1.2
	C1862.3,56.9,1862.3,57.4,1862.3,57.9z"/>
<path class="st0" d="M1874.9,52.1h4.3c0.6,0,1.2,0.1,1.7,0.2c0.5,0.1,1,0.3,1.4,0.6s0.7,0.6,1,1.1s0.4,1,0.4,1.7s-0.1,1.2-0.3,1.7
	c-0.2,0.5-0.5,0.8-0.9,1.1s-0.8,0.5-1.4,0.6s-1.1,0.2-1.7,0.2h-1.9v4.6h-2.6L1874.9,52.1L1874.9,52.1z M1877.5,57h1.7
	c0.2,0,0.4,0,0.7-0.1s0.4-0.1,0.6-0.2c0.2-0.1,0.3-0.2,0.4-0.4s0.2-0.4,0.2-0.7c0-0.3-0.1-0.5-0.2-0.7s-0.3-0.3-0.5-0.4
	s-0.4-0.2-0.7-0.2c-0.3,0-0.5,0-0.8,0h-1.3L1877.5,57L1877.5,57z"/>
<path class="st0" d="M1886.4,52.1h7.9v2.4h-5.4v2.2h5.1V59h-5.1v2.4h5.7v2.4h-8.2V52.1L1886.4,52.1z"/>
<path class="st0" d="M1901.5,52.1h2.1l5.1,11.7h-2.9l-1-2.5h-4.5l-1,2.5h-2.8L1901.5,52.1L1901.5,52.1z M1902.5,55.5l-1.4,3.6h2.8
	L1902.5,55.5L1902.5,55.5z"/>
<path class="st0" d="M1910.9,52.1h3.5l5,8.1h0v-8.1h2.6v11.7h-3.4l-5.1-8.3h0v8.3h-2.6V52.1z"/>
<path class="st0" d="M1824,70.1h4.4c0.5,0,1,0,1.5,0.1s1,0.2,1.4,0.4c0.4,0.2,0.7,0.5,1,0.9s0.4,0.9,0.4,1.5s-0.2,1.2-0.6,1.6
	s-0.9,0.8-1.5,0.9v0c0.4,0.1,0.7,0.2,1.1,0.3c0.3,0.2,0.6,0.4,0.8,0.6s0.4,0.5,0.5,0.9s0.2,0.7,0.2,1.1c0,0.6-0.1,1.1-0.4,1.5
	c-0.3,0.4-0.6,0.8-1,1s-0.9,0.4-1.4,0.5s-1,0.2-1.6,0.2h-4.8L1824,70.1L1824,70.1z M1826.5,74.8h1.9c0.2,0,0.4,0,0.6-0.1
	c0.2,0,0.4-0.1,0.5-0.2c0.2-0.1,0.3-0.2,0.4-0.4s0.1-0.4,0.1-0.6s-0.1-0.4-0.2-0.6c-0.1-0.2-0.2-0.3-0.4-0.4
	c-0.2-0.1-0.3-0.2-0.6-0.2s-0.4-0.1-0.6-0.1h-1.8L1826.5,74.8L1826.5,74.8z M1826.5,79.6h2.3c0.2,0,0.4,0,0.6-0.1
	c0.2,0,0.4-0.1,0.6-0.2c0.2-0.1,0.3-0.2,0.4-0.4s0.2-0.4,0.2-0.6c0-0.3-0.1-0.5-0.2-0.7s-0.3-0.3-0.5-0.4s-0.4-0.2-0.7-0.2
	c-0.2,0-0.5-0.1-0.7-0.1h-1.9L1826.5,79.6L1826.5,79.6z"/>
<path class="st0" d="M1835.7,70.1h2.6v9.3h4.8v2.4h-7.3V70.1L1835.7,70.1z"/>
<path class="st0" d="M1844.8,75.9c0-0.9,0.2-1.8,0.5-2.5c0.3-0.8,0.8-1.4,1.3-1.9s1.2-0.9,2-1.2s1.6-0.4,2.5-0.4s1.8,0.1,2.5,0.4
	c0.8,0.3,1.4,0.7,2,1.2s1,1.2,1.3,1.9s0.5,1.6,0.5,2.5s-0.2,1.8-0.5,2.5c-0.3,0.8-0.8,1.4-1.3,1.9s-1.2,0.9-2,1.2s-1.6,0.4-2.5,0.4
	s-1.8-0.1-2.5-0.4c-0.8-0.3-1.4-0.7-2-1.2c-0.6-0.5-1-1.2-1.3-1.9S1844.8,76.9,1844.8,75.9z M1847.5,75.9c0,0.6,0.1,1.1,0.3,1.5
	s0.4,0.8,0.7,1.2c0.3,0.3,0.7,0.6,1.2,0.8c0.4,0.2,0.9,0.3,1.5,0.3s1.1-0.1,1.5-0.3s0.8-0.4,1.2-0.8c0.3-0.3,0.6-0.7,0.7-1.2
	c0.2-0.5,0.3-1,0.3-1.5s-0.1-1-0.3-1.5c-0.2-0.5-0.4-0.9-0.7-1.2c-0.3-0.3-0.7-0.6-1.2-0.8c-0.4-0.2-0.9-0.3-1.5-0.3
	s-1.1,0.1-1.5,0.3c-0.4,0.2-0.8,0.4-1.2,0.8c-0.3,0.3-0.6,0.7-0.7,1.2C1847.6,74.9,1847.5,75.4,1847.5,75.9z"/>
<path class="st0" d="M1867.8,73.1c-0.2-0.3-0.6-0.5-0.9-0.7s-0.8-0.2-1.3-0.2s-0.9,0.1-1.3,0.3c-0.4,0.2-0.8,0.4-1.1,0.8
	s-0.5,0.7-0.7,1.2c-0.2,0.5-0.3,1-0.3,1.5s0.1,1.1,0.3,1.5c0.2,0.5,0.4,0.8,0.7,1.2c0.3,0.3,0.7,0.6,1.1,0.8s0.8,0.3,1.3,0.3
	c0.5,0,1-0.1,1.4-0.3c0.4-0.2,0.7-0.5,1-0.9l2.2,1.6c-0.5,0.7-1.1,1.2-1.9,1.5s-1.5,0.5-2.3,0.5c-0.9,0-1.8-0.1-2.5-0.4
	s-1.4-0.7-2-1.2c-0.6-0.5-1-1.2-1.3-1.9s-0.5-1.6-0.5-2.5s0.2-1.8,0.5-2.5c0.3-0.8,0.8-1.4,1.3-1.9s1.2-0.9,2-1.2s1.6-0.4,2.5-0.4
	c0.3,0,0.7,0,1,0.1s0.7,0.2,1.1,0.3c0.3,0.1,0.7,0.3,1,0.5s0.6,0.5,0.9,0.8L1867.8,73.1L1867.8,73.1z"/>
<path class="st0" d="M1872.6,70.1h2.6v4.8l4.5-4.8h3.4l-5.2,5.4l5.6,6.2h-3.6l-4.8-5.6v5.6h-2.6L1872.6,70.1L1872.6,70.1z"/>
<path class="st0" d="M1893,73.1c-0.2-0.3-0.6-0.5-0.9-0.7s-0.8-0.2-1.3-0.2s-0.9,0.1-1.3,0.3c-0.4,0.2-0.8,0.4-1.1,0.8
	s-0.5,0.7-0.7,1.2c-0.2,0.5-0.3,1-0.3,1.5s0.1,1.1,0.3,1.5c0.2,0.5,0.4,0.8,0.7,1.2c0.3,0.3,0.7,0.6,1.1,0.8
	c0.4,0.2,0.8,0.3,1.3,0.3c0.5,0,1-0.1,1.4-0.3c0.4-0.2,0.7-0.5,1-0.9l2.2,1.6c-0.5,0.7-1.1,1.2-1.9,1.5s-1.5,0.5-2.3,0.5
	c-0.9,0-1.8-0.1-2.5-0.4s-1.4-0.7-2-1.2s-1-1.2-1.3-1.9s-0.5-1.6-0.5-2.5s0.2-1.8,0.5-2.5s0.8-1.4,1.3-1.9s1.2-0.9,2-1.2
	s1.6-0.4,2.5-0.4c0.3,0,0.7,0,1,0.1s0.7,0.2,1.1,0.3s0.7,0.3,1,0.5s0.6,0.5,0.9,0.8L1893,73.1L1893,73.1z"/>
<path class="st0" d="M1897.6,70.1h2.6v4.4h5v-4.4h2.6v11.7h-2.6v-5.1h-5v5.1h-2.6V70.1z"/>
<path class="st0" d="M1915,70.1h2.1l5.1,11.7h-2.9l-1-2.5h-4.5l-1,2.5h-2.8L1915,70.1L1915,70.1z M1916,73.5l-1.4,3.6h2.8L1916,73.5
	L1916,73.5z"/>
<path class="st0" d="M1924.3,70.1h2.6v11.7h-2.6V70.1z"/>
<path class="st0" d="M1930.2,70.1h3.5l5,8.1h0v-8.1h2.6v11.7h-3.4l-5.1-8.3h0v8.3h-2.6L1930.2,70.1L1930.2,70.1z"/>
<path class="st0" d="M1827.8,88.1h2.1l5.1,11.7h-2.9l-1-2.5h-4.5l-1,2.5h-2.8L1827.8,88.1L1827.8,88.1z M1828.8,91.5l-1.4,3.6h2.8
	L1828.8,91.5L1828.8,91.5z"/>
<path class="st0" d="M1842.9,90.9c-0.2-0.3-0.5-0.5-0.8-0.6s-0.7-0.2-1-0.2c-0.2,0-0.4,0-0.6,0.1s-0.4,0.1-0.6,0.2
	c-0.2,0.1-0.3,0.2-0.4,0.4c-0.1,0.2-0.2,0.3-0.2,0.6c0,0.3,0.1,0.6,0.4,0.8c0.3,0.2,0.6,0.3,1,0.5c0.4,0.1,0.8,0.3,1.3,0.4
	c0.5,0.1,0.9,0.3,1.3,0.6s0.7,0.6,1,1c0.3,0.4,0.4,0.9,0.4,1.6s-0.1,1.2-0.4,1.7c-0.2,0.5-0.6,0.9-1,1.2s-0.9,0.6-1.4,0.7
	c-0.5,0.2-1.1,0.2-1.7,0.2c-0.8,0-1.5-0.1-2.1-0.3c-0.7-0.2-1.2-0.6-1.8-1.1l1.8-2c0.3,0.3,0.6,0.6,1,0.8s0.8,0.3,1.2,0.3
	c0.2,0,0.4,0,0.6-0.1c0.2-0.1,0.4-0.1,0.6-0.2s0.3-0.2,0.4-0.4c0.1-0.2,0.2-0.3,0.2-0.5c0-0.3-0.1-0.6-0.4-0.8
	c-0.3-0.2-0.6-0.4-1-0.5s-0.8-0.3-1.3-0.4s-0.9-0.3-1.3-0.6c-0.4-0.2-0.7-0.6-1-1s-0.4-0.9-0.4-1.6s0.1-1.2,0.4-1.7s0.6-0.9,1-1.2
	s0.9-0.6,1.4-0.7s1.1-0.2,1.7-0.2c0.7,0,1.3,0.1,1.9,0.3c0.6,0.2,1.2,0.5,1.7,0.9L1842.9,90.9L1842.9,90.9z"/>
<path class="st0" d="M1853.4,90.9c-0.2-0.3-0.5-0.5-0.8-0.6s-0.7-0.2-1-0.2c-0.2,0-0.4,0-0.6,0.1c-0.2,0-0.4,0.1-0.6,0.2
	c-0.2,0.1-0.3,0.2-0.4,0.4c-0.1,0.2-0.2,0.3-0.2,0.6c0,0.3,0.1,0.6,0.4,0.8c0.3,0.2,0.6,0.3,1,0.5c0.4,0.1,0.8,0.3,1.3,0.4
	c0.5,0.1,0.9,0.3,1.3,0.6c0.4,0.2,0.7,0.6,1,1c0.3,0.4,0.4,0.9,0.4,1.6s-0.1,1.2-0.4,1.7c-0.2,0.5-0.6,0.9-1,1.2s-0.9,0.6-1.4,0.7
	s-1.1,0.2-1.7,0.2c-0.8,0-1.5-0.1-2.1-0.3c-0.7-0.2-1.2-0.6-1.8-1.1l1.8-2c0.3,0.3,0.6,0.6,1,0.8c0.4,0.2,0.8,0.3,1.2,0.3
	c0.2,0,0.4,0,0.6-0.1c0.2-0.1,0.4-0.1,0.6-0.2c0.2-0.1,0.3-0.2,0.4-0.4c0.1-0.2,0.2-0.3,0.2-0.5c0-0.3-0.1-0.6-0.4-0.8
	c-0.3-0.2-0.6-0.4-1-0.5s-0.8-0.3-1.3-0.4s-0.9-0.3-1.3-0.6s-0.8-0.6-1-1c-0.3-0.4-0.4-0.9-0.4-1.6s0.1-1.2,0.4-1.7s0.6-0.9,1-1.2
	s0.9-0.6,1.4-0.7s1.1-0.2,1.7-0.2c0.7,0,1.3,0.1,1.9,0.3c0.6,0.2,1.2,0.5,1.7,0.9L1853.4,90.9L1853.4,90.9z"/>
<path class="st0" d="M1857.4,93.9c0-0.9,0.2-1.8,0.5-2.5c0.3-0.8,0.8-1.4,1.3-1.9s1.2-0.9,2-1.2s1.6-0.4,2.5-0.4s1.8,0.1,2.5,0.4
	s1.4,0.7,2,1.2c0.6,0.5,1,1.2,1.3,1.9s0.5,1.6,0.5,2.5s-0.2,1.8-0.5,2.5s-0.8,1.4-1.3,1.9s-1.2,0.9-2,1.2s-1.6,0.4-2.5,0.4
	s-1.8-0.1-2.5-0.4c-0.8-0.3-1.4-0.7-2-1.2c-0.6-0.5-1-1.2-1.3-1.9S1857.4,94.9,1857.4,93.9z M1860.1,93.9c0,0.6,0.1,1.1,0.3,1.5
	s0.4,0.8,0.7,1.2c0.3,0.3,0.7,0.6,1.2,0.8c0.4,0.2,0.9,0.3,1.5,0.3s1.1-0.1,1.5-0.3s0.8-0.4,1.2-0.8c0.3-0.3,0.6-0.7,0.7-1.2
	c0.2-0.5,0.3-1,0.3-1.5s-0.1-1-0.3-1.5c-0.2-0.5-0.4-0.9-0.7-1.2s-0.7-0.6-1.2-0.8c-0.4-0.2-0.9-0.3-1.5-0.3s-1.1,0.1-1.5,0.3
	c-0.4,0.2-0.8,0.4-1.2,0.8s-0.6,0.7-0.7,1.2C1860.2,92.9,1860.1,93.4,1860.1,93.9z"/>
<path class="st0" d="M1880.4,91.1c-0.2-0.3-0.6-0.5-0.9-0.7s-0.8-0.2-1.3-0.2s-0.9,0.1-1.3,0.3c-0.4,0.2-0.8,0.4-1.1,0.8
	s-0.5,0.7-0.7,1.2c-0.2,0.5-0.3,1-0.3,1.5s0.1,1.1,0.3,1.5c0.2,0.5,0.4,0.8,0.7,1.2c0.3,0.3,0.7,0.6,1.1,0.8s0.8,0.3,1.3,0.3
	c0.5,0,1-0.1,1.4-0.3c0.4-0.2,0.7-0.5,1-0.9l2.2,1.6c-0.5,0.7-1.1,1.2-1.9,1.5s-1.5,0.5-2.3,0.5c-0.9,0-1.8-0.1-2.5-0.4
	s-1.4-0.7-2-1.2c-0.6-0.5-1-1.2-1.3-1.9s-0.5-1.6-0.5-2.5s0.2-1.8,0.5-2.5c0.3-0.8,0.8-1.4,1.3-1.9s1.2-0.9,2-1.2s1.6-0.4,2.5-0.4
	c0.3,0,0.7,0,1,0.1s0.7,0.2,1.1,0.3c0.3,0.1,0.7,0.3,1,0.5s0.6,0.5,0.9,0.8L1880.4,91.1L1880.4,91.1z"/>
<path class="st0" d="M1885,88.1h2.6v11.7h-2.6V88.1z"/>
<path class="st0" d="M1894.8,88.1h2.1l5.1,11.7h-2.9l-1-2.5h-4.5l-1,2.5h-2.8L1894.8,88.1L1894.8,88.1z M1895.8,91.5l-1.4,3.6h2.8
	L1895.8,91.5L1895.8,91.5z"/>
<path class="st0" d="M1904.9,90.4h-3.3v-2.3h9.2v2.3h-3.3v9.4h-2.6L1904.9,90.4L1904.9,90.4z"/>
<path class="st0" d="M1913,88.1h2.6v11.7h-2.6V88.1z"/>
<path class="st0" d="M1918.3,93.9c0-0.9,0.2-1.8,0.5-2.5c0.3-0.8,0.8-1.4,1.3-1.9s1.2-0.9,2-1.2s1.6-0.4,2.5-0.4s1.8,0.1,2.5,0.4
	c0.8,0.3,1.4,0.7,2,1.2c0.6,0.5,1,1.2,1.3,1.9s0.5,1.6,0.5,2.5s-0.2,1.8-0.5,2.5c-0.3,0.8-0.8,1.4-1.3,1.9s-1.2,0.9-2,1.2
	s-1.6,0.4-2.5,0.4s-1.8-0.1-2.5-0.4s-1.4-0.7-2-1.2c-0.6-0.5-1-1.2-1.3-1.9S1918.3,94.9,1918.3,93.9z M1920.9,93.9
	c0,0.6,0.1,1.1,0.3,1.5c0.2,0.5,0.4,0.8,0.7,1.2c0.3,0.3,0.7,0.6,1.2,0.8s0.9,0.3,1.5,0.3s1.1-0.1,1.5-0.3c0.4-0.2,0.8-0.4,1.2-0.8
	c0.3-0.3,0.6-0.7,0.7-1.2c0.2-0.5,0.3-1,0.3-1.5s-0.1-1-0.3-1.5s-0.4-0.9-0.7-1.2c-0.3-0.3-0.7-0.6-1.2-0.8
	c-0.4-0.2-0.9-0.3-1.5-0.3s-1.1,0.1-1.5,0.3c-0.4,0.2-0.8,0.4-1.2,0.8c-0.3,0.3-0.6,0.7-0.7,1.2C1921,92.9,1920.9,93.4,1920.9,93.9z
	"/>
<path class="st0" d="M1933.6,88.1h3.5l5,8.1h0v-8.1h2.6v11.7h-3.4l-5.1-8.3h0v8.3h-2.6L1933.6,88.1L1933.6,88.1z"/>
</svg>
