<?xml version="1.0" encoding="UTF-8"?><svg id="Layer_1" xmlns="http://www.w3.org/2000/svg" viewBox="0 0 165 165"><defs><style>.cls-1{fill:#333;}</style></defs><path class="cls-1 hover:fill-green-500 cursor-pointer" d="m55.56,129.32h-20.44c-.97,0-1.75-.78-1.75-1.75v-20.44c0-.97.78-1.75,1.75-1.75h20.44c.97,0,1.75.78,1.75,1.75v20.44c0,.97-.78,1.75-1.75,1.75Zm-18.69-3.5h16.94v-16.94h-16.94v16.94Z"/><path class="cls-1" d="m92.61,129.32h-20.44c-.97,0-1.75-.78-1.75-1.75v-20.44c0-.97.78-1.75,1.75-1.75h20.44c.97,0,1.75.78,1.75,1.75v20.44c0,.97-.78,1.75-1.75,1.75Zm-18.69-3.5h16.94v-16.94h-16.94v16.94Z"/><path class="cls-1" d="m129.65,129.32h-20.44c-.97,0-1.75-.78-1.75-1.75v-20.44c0-.97.78-1.75,1.75-1.75h20.44c.97,0,1.75.78,1.75,1.75v20.44c0,.97-.78,1.75-1.75,1.75Zm-18.69-3.5h16.94v-16.94h-16.94v16.94Z"/><path class="cls-1" d="m119.44,101.59c-.97,0-1.75-.78-1.75-1.75v-7.88c0-1.54-1.25-2.8-2.8-2.8H49.89c-1.54,0-2.8,1.25-2.8,2.8v7.88c0,.97-.78,1.75-1.75,1.75s-1.75-.78-1.75-1.75v-7.88c0-3.47,2.82-6.3,6.3-6.3h65c3.47,0,6.3,2.83,6.3,6.3v7.88c0,.97-.78,1.75-1.75,1.75Z"/><path class="cls-1" d="m82.39,101.59c-.97,0-1.75-.78-1.75-1.75v-28.35c0-.97.78-1.75,1.75-1.75s1.75.78,1.75,1.75v28.35c0,.97-.78,1.75-1.75,1.75Z"/><path class="cls-1" d="m99.26,73.24h-33.73c-.97,0-1.75-.78-1.75-1.75v-33.73c0-.97.78-1.75,1.75-1.75h33.73c.97,0,1.75.78,1.75,1.75v33.73c0,.97-.78,1.75-1.75,1.75Zm-31.98-3.5h30.23v-30.23h-30.23v30.23Z"/></svg>