<?xml version="1.0" encoding="UTF-8"?><svg id="Layer_1" xmlns="http://www.w3.org/2000/svg" viewBox="0 0 165 165"><defs><style>.cls-1{fill:#333;}</style></defs><path class="cls-1" d="m96.76,53.61c-.64,0-1.25-.35-1.56-.96-.44-.86-.09-1.92.77-2.35l12.68-6.42c.86-.44,1.92-.09,2.35.77.44.86.09,1.92-.77,2.35l-12.68,6.42c-.25.13-.52.19-.79.19Z"/><path class="cls-1" d="m82.5,88.13c-.32,0-.65-.09-.93-.27-.51-.32-.82-.88-.82-1.48v-27.84c0-.68.39-1.3,1.01-1.58l14.26-6.68c.88-.41,1.92-.03,2.33.84.41.88.03,1.92-.84,2.33l-13.25,6.21v23.93l23.44-11.4v-25.63l-25.19-11.89-22.89,10.81,7.03,3.42c.87.42,1.23,1.47.81,2.34-.42.87-1.47,1.23-2.34.81l-10.31-5.02c-.61-.3-.99-.91-.98-1.58,0-.67.39-1.29,1-1.57l26.94-12.72c.47-.22,1.02-.22,1.49,0l26.94,12.72c.61.29,1,.91,1,1.58v27.84c0,.67-.38,1.28-.98,1.57l-26.94,13.1c-.24.12-.5.18-.77.18Z"/><path class="cls-1" d="m82.5,88.13c-.26,0-.52-.06-.77-.18l-26.94-13.1c-.6-.29-.98-.9-.98-1.57v-27.84c0-.97.78-1.75,1.75-1.75s1.75.78,1.75,1.75v26.74l23.44,11.4v-23.95l-15.65-7.61c-.87-.42-1.23-1.47-.81-2.34.42-.87,1.47-1.23,2.34-.81l16.63,8.09c.6.29.98.9.98,1.57v27.84c0,.6-.31,1.16-.82,1.48-.28.18-.6.27-.93.27Z"/><path class="cls-1" d="m90.95,129.67c-.66,0-1.32-.03-1.97-.09l-28.9-2.61c-.96-.09-1.67-.94-1.59-1.9.09-.96.94-1.67,1.9-1.59l28.9,2.61c4.23.38,8.52-.71,12.05-3.08l18.35-12.29c1.13-.76,1.47-2.27.78-3.44-.61-1.03-1.9-1.46-3.01-.98l-23.47,10.07c-.89.38-1.92-.03-2.3-.92-.38-.89.03-1.92.92-2.3l23.47-10.07c2.71-1.16,5.89-.13,7.4,2.41,1.64,2.77.83,6.34-1.84,8.13l-18.35,12.29c-3.65,2.45-7.97,3.75-12.34,3.75Z"/><path class="cls-1" d="m89.99,118.02c-.26,0-.53-.02-.79-.05l-16.78-2.13c-.96-.12-1.64-1-1.52-1.96.12-.96,1-1.63,1.96-1.52l16.78,2.13c.71.09,1.42-.1,1.99-.54.57-.44.93-1.08,1.02-1.79.18-1.41-.78-2.72-2.18-2.98l-24.76-4.58c-1.67-.31-3.36-.09-4.9.62l-6.6,3.07c-.88.41-1.92.03-2.32-.85-.41-.88-.03-1.92.85-2.32l6.6-3.07c2.2-1.02,4.63-1.33,7.02-.89l24.76,4.58c3.22.6,5.43,3.61,5.01,6.87-.21,1.64-1.04,3.1-2.35,4.11-1.1.85-2.41,1.3-3.78,1.3Z"/><path class="cls-1" d="m51.79,134.03c-.25,0-.5-.05-.74-.16-.42-.2-.75-.55-.91-.99l-9.37-25.66c-.16-.44-.14-.92.06-1.34s.55-.75.99-.91l9.72-3.55c.9-.33,1.91.13,2.24,1.04l9.37,25.66c.33.91-.14,1.91-1.04,2.24l-9.72,3.55c-.19.07-.4.11-.6.11Zm-7.13-26.37l8.17,22.38,6.43-2.35-8.17-22.38-6.43,2.35Z"/></svg>